<svg width="2437" height="1142" viewBox="0 0 2437 1142" fill="none" xmlns="http://www.w3.org/2000/svg">
<mask id="mask0_1_66" style="mask-type:luminance" maskUnits="userSpaceOnUse" x="0" y="0" width="2437" height="1142">
<path d="M2437 1141.05L9.15527e-05 1141.05L-3.85907e-06 0.704102L2437 0.703879L2437 1141.05Z" fill="white"/>
</mask>
<g mask="url(#mask0_1_66)">
<path d="M-5730.41 729.786C-5597.74 971.01 -489.442 2965.22 -1706.89 2387.22C-2937.07 1807.52 3227.47 546.104 3397.68 -607.398C3452.85 -981.286 1383.91 -5138.63 885.057 -5839.03" stroke="white" stroke-opacity="0.07" stroke-width="0.0483" stroke-miterlimit="10"/>
<path d="M-5740.41 719.359C-5763.96 1067.22 -490.711 2936.44 -1677.97 2342.45C-2875.14 1743.51 3168.83 558.967 3355.51 -581.502C3416.02 -951.164 1432.23 -4999.52 955.965 -5698.06" stroke="white" stroke-opacity="0.07" stroke-width="0.0966" stroke-miterlimit="10"/>
<path d="M-5750.41 708.932C-5930.2 1163.43 -492.678 2909.53 -1649.06 2297.69C-2813.92 1681.36 3110.2 571.831 3313.35 -555.598C3379.19 -921.034 1480.56 -4860.41 1026.87 -5557.09" stroke="white" stroke-opacity="0.07" stroke-width="0.1449" stroke-miterlimit="10"/>
<path d="M-5760.41 698.512C-6096.43 1259.64 -494.574 2882.68 -1620.15 2252.92C-2752.63 1619.29 3051.57 584.702 3271.18 -529.703C3342.37 -890.921 1528.88 -4721.3 1097.78 -5416.14" stroke="white" stroke-opacity="0.07" stroke-width="0.1932" stroke-miterlimit="10"/>
<path d="M-5770.41 688.083C-6262.66 1355.85 -496.418 2855.91 -1591.24 2208.15C-2691.29 1557.3 2992.94 597.564 3229.02 -503.808C3305.55 -860.8 1577.2 -4582.2 1168.69 -5275.17" stroke="white" stroke-opacity="0.07" stroke-width="0.2415" stroke-miterlimit="10"/>
<path d="M-5780.41 677.655C-6428.89 1452.05 -498.191 2829.22 -1562.33 2163.39C-2629.9 1495.4 2934.31 610.435 3186.85 -477.904C3268.71 -830.671 1625.52 -4443.08 1239.6 -5134.21" stroke="white" stroke-opacity="0.07" stroke-width="0.2898" stroke-miterlimit="10"/>
<path d="M-5790.41 667.236C-6595.12 1548.26 -499.912 2802.63 -1533.42 2118.62C-2568.46 1433.59 2875.68 623.299 3144.68 -452C3231.89 -800.541 1673.84 -4303.97 1310.5 -4993.24" stroke="white" stroke-opacity="0.07" stroke-width="0.3381" stroke-miterlimit="10"/>
<path d="M-5800.4 656.808C-6761.35 1644.48 -501.577 2776.14 -1504.49 2073.86C-2506.97 1371.89 2817.06 636.162 3102.53 -426.104C3195.07 -770.427 1722.18 -4164.86 1381.42 -4852.28" stroke="white" stroke-opacity="0.07" stroke-width="0.3864" stroke-miterlimit="10"/>
<path d="M-5810.41 646.38C-6927.58 1740.68 -503.2 2749.76 -1475.58 2029.09C-2445.44 1310.3 2758.42 649.024 3060.36 -400.21C3158.24 -740.306 1770.5 -4025.75 1452.33 -4711.32" stroke="white" stroke-opacity="0.07" stroke-width="0.4347" stroke-miterlimit="10"/>
<path d="M-5820.41 635.96C-7093.81 1836.89 -504.775 2723.49 -1446.67 1984.32C-2383.89 1248.82 2699.79 661.888 3018.19 -374.314C3121.41 -710.184 1818.82 -3886.64 1523.23 -4570.36" stroke="white" stroke-opacity="0.07" stroke-width="0.483" stroke-miterlimit="10"/>
<path d="M-5830.41 625.533C-7260.05 1933.1 -506.326 2697.35 -1417.76 1939.56C-2322.31 1187.49 2641.16 674.76 2976.03 -348.401C3084.58 -680.046 1867.14 -3747.53 1594.13 -4429.38" stroke="white" stroke-opacity="0.07" stroke-width="0.5313" stroke-miterlimit="10"/>
<path d="M-5840.4 615.106C-7426.27 2029.31 -507.847 2671.35 -1388.85 1894.8C-2260.71 1126.29 2582.53 687.631 2933.87 -322.505C3047.76 -649.932 1915.47 -3608.42 1665.04 -4288.43" stroke="white" stroke-opacity="0.07" stroke-width="0.5796" stroke-miterlimit="10"/>
<path d="M-5850.41 604.686C-7592.51 2125.52 -509.364 2645.48 -1359.94 1850.03C-2199.12 1065.22 2523.89 700.494 2891.7 -296.609C3010.93 -619.81 1963.78 -3469.31 1735.95 -4147.46" stroke="white" stroke-opacity="0.07" stroke-width="0.628" stroke-miterlimit="10"/>
<path d="M-5860.41 594.258C-7758.74 2221.73 -510.879 2619.76 -1331.02 1805.26C-2137.54 1004.3 2465.27 713.357 2849.53 -270.714C2974.1 -589.689 2012.1 -3330.2 1806.85 -4006.51" stroke="white" stroke-opacity="0.07" stroke-width="0.6763" stroke-miterlimit="10"/>
<path d="M-5870.41 583.83C-7924.97 2317.94 -512.397 2594.18 -1302.11 1760.5C-2075.97 943.54 2406.63 726.228 2807.37 -244.802C2937.28 -559.551 2060.42 -3191.08 1877.76 -3865.53" stroke="white" stroke-opacity="0.07" stroke-width="0.7246" stroke-miterlimit="10"/>
<path d="M-5880.41 573.411C-8091.2 2414.15 -513.951 2568.76 -1273.2 1715.74C-2014.45 882.926 2348.01 739.091 2765.2 -218.907C2900.45 -529.438 2108.75 -3051.98 1948.67 -3724.57" stroke="white" stroke-opacity="0.07" stroke-width="0.7729" stroke-miterlimit="10"/>
<path d="M-5890.41 562.984C-8257.43 2510.36 -515.547 2543.49 -1244.28 1670.97C-1952.96 822.465 2289.38 751.955 2723.05 -193.01C2863.63 -499.316 2157.08 -2912.87 2019.59 -3583.61" stroke="white" stroke-opacity="0.07" stroke-width="0.8212" stroke-miterlimit="10"/>
<path d="M-5900.41 552.556C-8423.66 2606.57 -517.2 2518.36 -1215.37 1626.2C-1891.54 762.15 2230.75 764.819 2680.88 -167.114C2826.8 -469.194 2205.4 -2773.76 2090.5 -3442.65" stroke="white" stroke-opacity="0.07" stroke-width="0.8695" stroke-miterlimit="10"/>
<path d="M-5910.41 542.136C-8589.89 2702.77 -518.92 2493.38 -1186.45 1581.43C-1830.2 701.986 2172.12 777.681 2638.71 -141.211C2789.97 -439.065 2253.72 -2634.65 2161.4 -3301.68" stroke="white" stroke-opacity="0.07" stroke-width="0.9178" stroke-miterlimit="10"/>
<path d="M-5920.4 531.709C-8756.13 2798.99 -520.74 2468.54 -1157.54 1536.68C-1768.96 641.961 2113.49 790.561 2596.55 -115.307C2753.14 -408.942 2302.04 -2495.53 2232.31 -3160.72" stroke="white" stroke-opacity="0.07" stroke-width="0.9661" stroke-miterlimit="10"/>
<path d="M-5930.41 521.281C-8922.36 2895.2 -522.653 2443.84 -1128.63 1491.91C-1707.81 582.065 2054.86 803.424 2554.38 -89.4109C2716.32 -378.821 2350.36 -2356.42 2303.21 -3019.75" stroke="white" stroke-opacity="0.07" stroke-width="1.0144" stroke-miterlimit="10"/>
<path d="M-5940.41 510.861C-9088.59 2991.4 -524.692 2419.27 -1099.72 1447.14C-1646.78 522.289 1996.23 816.287 2512.22 -63.5154C2679.49 -348.699 2398.69 -2217.32 2374.12 -2878.8" stroke="white" stroke-opacity="0.07" stroke-width="1.0627" stroke-miterlimit="10"/>
<path d="M-5950.41 500.434C-9254.82 3087.61 -526.858 2394.8 -1070.81 1402.37C-1585.89 462.618 1937.59 829.15 2470.05 -37.6114C2642.66 -318.57 2447 -2078.21 2445.02 -2737.83" stroke="white" stroke-opacity="0.07" stroke-width="1.111" stroke-miterlimit="10"/>
<path d="M-5960.4 490.006C-9421.05 3183.83 -529.176 2370.43 -1041.89 1357.61C-1525.13 403.044 1878.97 842.021 2427.88 -11.7078C2605.84 -288.448 2495.33 -1939.09 2515.93 -2596.86" stroke="white" stroke-opacity="0.07" stroke-width="1.1593" stroke-miterlimit="10"/>
<path d="M-5970.41 479.587C-9587.28 3280.04 -531.637 2346.15 -1012.98 1312.85C-1464.51 343.551 1820.33 854.885 2385.72 14.1882C2569.01 -258.326 2543.65 -1799.98 2586.84 -2455.9" stroke="white" stroke-opacity="0.07" stroke-width="1.2076" stroke-miterlimit="10"/>
<path d="M-5980.41 469.159C-9753.52 3376.24 -534.269 2321.92 -984.07 1268.08C-1404.04 284.114 1761.7 867.748 2343.56 40.0835C2532.18 -228.205 2591.97 -1660.87 2657.74 -2314.94" stroke="white" stroke-opacity="0.07" stroke-width="1.2559" stroke-miterlimit="10"/>
<path d="M-5990.41 458.731C-9919.75 3472.45 -537.067 2297.75 -955.157 1223.31C-1343.73 224.726 1703.07 880.611 2301.39 65.9876C2495.36 -198.075 2640.29 -1521.77 2728.65 -2173.98" stroke="white" stroke-opacity="0.07" stroke-width="1.3042" stroke-miterlimit="10"/>
<path d="M-6000.41 448.312C-10086 3568.67 -540.035 2273.62 -926.239 1178.55C-1283.57 165.37 1644.44 893.491 2259.23 91.8918C2458.53 -167.953 2688.62 -1382.65 2799.56 -2033" stroke="white" stroke-opacity="0.07" stroke-width="1.3525" stroke-miterlimit="10"/>
<path d="M-6010.41 437.885C-10252.2 3664.87 -543.168 2249.49 -897.324 1133.79C-1223.56 106.014 1585.82 906.354 2217.07 117.788C2421.71 -137.831 2736.94 -1243.54 2870.47 -1892.04" stroke="white" stroke-opacity="0.07" stroke-width="1.4008" stroke-miterlimit="10"/>
<path d="M-6020.41 427.456C-10418.4 3761.07 -546.488 2225.37 -868.413 1089.02C-1163.71 46.6564 1527.18 919.217 2174.9 143.683C2384.88 -107.71 2785.27 -1104.43 2941.38 -1751.09" stroke="white" stroke-opacity="0.07" stroke-width="1.4491" stroke-miterlimit="10"/>
<path d="M-6030.4 417.036C-10584.7 3857.29 -549.96 2201.22 -839.495 1044.25C-1104.01 -12.7241 1468.56 932.08 2132.74 169.586C2348.06 -77.5806 2833.59 -965.319 3012.3 -1610.12" stroke="white" stroke-opacity="0.07" stroke-width="1.4974" stroke-miterlimit="10"/>
<path d="M-6040.4 406.609C-10750.9 3953.5 -553.606 2177.04 -810.588 999.485C-1044.45 -72.1447 1409.92 944.943 2090.57 195.482C2311.23 -47.4669 2881.91 -826.211 3083.19 -1469.15" stroke="white" stroke-opacity="0.07" stroke-width="1.5457" stroke-miterlimit="10"/>
<path d="M-6050.41 396.181C-10917.1 4049.71 -557.407 2152.81 -781.677 954.726C-985.026 -131.606 1351.29 957.815 2048.4 221.386C2274.4 -17.337 2930.23 -687.103 3154.1 -1328.19" stroke="white" stroke-opacity="0.07" stroke-width="1.594" stroke-miterlimit="10"/>
<path d="M-6060.41 385.762C-11083.4 4145.92 -561.354 2128.52 -752.766 909.959C-925.719 -191.139 1292.65 970.678 2006.24 247.282C2237.57 12.7849 2978.55 -547.994 3225 -1187.23" stroke="white" stroke-opacity="0.07" stroke-width="1.6423" stroke-miterlimit="10"/>
<path d="M-6070.4 375.335C-11249.6 4242.13 -565.438 2104.16 -723.847 865.192C-866.526 -250.737 1234.04 983.541 1964.08 273.186C2200.75 42.9149 3026.88 -408.878 3295.92 -1046.26" stroke="white" stroke-opacity="0.07" stroke-width="1.6906" stroke-miterlimit="10"/>
<path d="M-6080.41 364.907C-11415.8 4338.34 -569.642 2079.7 -694.933 820.425C-807.447 -310.424 1175.4 996.412 1921.91 299.082C2163.92 73.0282 3075.2 -269.77 3366.82 -905.301" stroke="white" stroke-opacity="0.07" stroke-width="1.7389" stroke-miterlimit="10"/>
<path d="M-6090.41 354.487C-11582.1 4434.55 -573.972 2055.16 -666.023 775.665C-748.462 -370.191 1116.77 1009.28 1879.74 324.986C2127.09 103.158 3123.52 -130.654 3437.73 -764.33" stroke="white" stroke-opacity="0.07" stroke-width="1.7872" stroke-miterlimit="10"/>
<path d="M-6100.41 344.06C-11748.3 4530.75 -578.407 2030.52 -637.111 730.899C-689.552 -430.055 1058.14 1022.15 1837.58 350.882C2090.26 133.28 3171.84 8.44645 3508.63 -623.375" stroke="white" stroke-opacity="0.07" stroke-width="1.8355" stroke-miterlimit="10"/>
<path d="M-6110.4 333.631C-11914.5 4626.96 -582.918 2005.77 -608.198 686.122C-630.726 -490.026 999.51 1035 1795.42 376.776C2053.44 163.4 3220.16 147.553 3579.55 -482.413" stroke="white" stroke-opacity="0.07" stroke-width="1.8838" stroke-miterlimit="10"/>
<path d="M-6120.41 323.212C-12080.8 4723.18 -587.521 1980.94 -579.286 641.364C-571.96 -550.074 940.877 1047.87 1753.25 402.681C2016.61 193.523 3268.49 286.67 3650.46 -341.441" stroke="white" stroke-opacity="0.07" stroke-width="1.9322" stroke-miterlimit="10"/>
<path d="M-6130.41 312.785C-12247 4819.38 -592.193 1955.98 -550.373 596.597C-513.249 -610.237 882.249 1060.74 1711.08 428.577C1979.79 223.645 3316.8 425.778 3721.36 -200.486" stroke="white" stroke-opacity="0.07" stroke-width="1.9805" stroke-miterlimit="10"/>
<path d="M-6140.41 302.357C-12413.2 4915.59 -596.917 1930.91 -521.46 551.83C-454.582 -670.497 823.616 1073.6 1668.92 454.472C1942.96 253.766 3365.13 564.886 3792.27 -59.5236" stroke="white" stroke-opacity="0.07" stroke-width="2.0288" stroke-miterlimit="10"/>
<path d="M-6150.4 291.937C-12579.4 5011.8 -601.679 1905.76 -492.538 507.071C-395.937 -730.853 764.999 1086.47 1626.77 480.385C1906.14 283.904 3413.46 704.01 3863.18 81.4478" stroke="white" stroke-opacity="0.07" stroke-width="2.0771" stroke-miterlimit="10"/>
<path d="M-6160.41 281.509C-12745.7 5108.01 -606.493 1880.48 -463.63 462.304C-337.345 -791.314 706.359 1099.33 1584.6 506.28C1869.31 314.018 3461.78 843.11 3934.09 222.411" stroke="white" stroke-opacity="0.07" stroke-width="2.1254" stroke-miterlimit="10"/>
<path d="M-6170.41 271.081C-12911.9 5204.22 -611.34 1855.1 -434.717 417.536C-278.763 -851.872 647.734 1112.2 1542.43 532.175C1832.48 344.139 3510.1 982.218 4004.99 363.373" stroke="white" stroke-opacity="0.07" stroke-width="2.1737" stroke-miterlimit="10"/>
<path d="M-6180.41 260.662C-13078.2 5300.43 -618.206 1829.31 -405.811 372.777C-221.977 -912.793 589.092 1125.08 1500.26 558.079C1795.65 374.268 3558.42 1121.33 4075.89 504.336" stroke="white" stroke-opacity="0.07" stroke-width="2.222" stroke-miterlimit="10"/>
<path d="M-6190.4 250.235C-13244.4 5396.64 -621.067 1804.07 -376.893 328.01C-161.631 -973.245 530.463 1137.94 1458.1 583.984C1758.83 404.399 3606.74 1260.45 4146.8 645.307" stroke="white" stroke-opacity="0.07" stroke-width="2.2703" stroke-miterlimit="10"/>
</g>
</svg>
