<svg width="40" height="40" viewBox="0 0 40 40" fill="none" xmlns="http://www.w3.org/2000/svg">
<path d="M19.9995 38.5079C18.5714 38.5466 17.1863 38.0172 16.1481 37.0359C15.1098 36.0546 14.5032 34.7015 14.4612 33.2736C14.3833 31.3513 14.5141 28.5311 13.1672 27.8366C11.0816 26.3836 9.51344 24.3038 8.69035 21.8989C7.86726 19.4941 7.8321 16.8895 8.58998 14.4634C9.34786 12.0372 10.8593 9.91574 12.9049 8.40703C14.9505 6.89831 17.4237 6.08088 19.9655 6.07341C22.5073 6.06594 24.9853 6.86883 27.0397 8.36549C29.0941 9.86216 30.6181 11.9747 31.3902 14.3964C32.1623 16.818 32.1424 19.4228 31.3335 21.8324C30.5246 24.242 28.9686 26.3311 26.8916 27.7963C26.5193 28.0799 26.216 28.4441 26.0046 28.8616C25.7932 29.2792 25.6791 29.7392 25.6709 30.2072L25.5391 33.2485C25.5019 34.6806 24.8974 36.0392 23.8586 37.0255C22.8197 38.0118 21.4316 38.5451 19.9995 38.5079ZM16.905 31.4858C16.748 34.104 17.5633 35.9849 19.9984 36.0079C20.3903 36.026 20.7818 35.9646 21.1494 35.8276C21.5169 35.6905 21.853 35.4806 22.1373 35.2104C22.4217 34.9401 22.6485 34.6152 22.8041 34.2551C22.9597 33.895 23.0409 33.5071 23.0427 33.1149L23.1135 31.4858H16.905ZM16.645 28.9858H23.3272C23.6183 27.686 24.3735 26.5369 25.4512 25.754C26.8601 24.7563 27.9699 23.3928 28.6609 21.8107C29.3518 20.2286 29.5978 18.4879 29.3721 16.7763C29.0824 14.3863 27.873 12.2031 26.0003 10.6899C24.1277 9.17679 21.7392 8.45278 19.3416 8.67149C16.9408 8.78134 14.6778 9.82457 13.0351 11.5788C11.3924 13.333 10.4998 15.6595 10.5476 18.0624C10.552 19.5716 10.9179 21.0579 11.6148 22.3966C12.3116 23.7354 13.319 24.8877 14.5528 25.7571C15.1043 26.1229 15.5747 26.5984 15.9347 27.1539C16.2946 27.7093 16.5364 28.3329 16.645 28.9858ZM30.8418 30.1205C30.2121 30.1886 29.6265 29.4003 29.2134 29.0242C29.0921 28.905 28.9963 28.7623 28.9319 28.6048C28.8675 28.4474 28.8358 28.2785 28.8388 28.1084C28.8418 27.9383 28.8794 27.7706 28.9493 27.6155C29.0191 27.4604 29.1199 27.3212 29.2453 27.2062C29.3707 27.0913 29.5182 27.0031 29.6788 26.9471C29.8394 26.891 30.0098 26.8682 30.1795 26.88C30.3491 26.8919 30.5147 26.9382 30.6659 27.0161C30.8171 27.0939 30.9509 27.2018 31.0591 27.333L31.7171 27.9781C31.8903 28.1535 32.0082 28.3759 32.0561 28.6177C32.104 28.8595 32.0799 29.11 31.9867 29.3382C31.8934 29.5664 31.7352 29.7622 31.5317 29.9013C31.3282 30.0403 31.0883 30.1166 30.8418 30.1205ZM9.15725 30.1205C8.91078 30.1166 8.67089 30.0403 8.46736 29.9013C8.26383 29.7622 8.10564 29.5664 8.01241 29.3382C7.91919 29.11 7.89505 28.8595 7.94298 28.6177C7.99091 28.3759 8.10881 28.1535 8.28203 27.9781L8.98266 27.2903C9.15271 27.1064 9.37384 26.9776 9.61764 26.9204C9.86144 26.8632 10.1168 26.8801 10.3509 26.9691C10.585 27.0581 10.7871 27.215 10.9314 27.4197C11.0756 27.6244 11.1554 27.8676 11.1604 28.118C11.1603 28.4578 11.0256 28.7837 10.7856 29.0243C10.3698 29.4004 9.7891 30.1879 9.15725 30.1205ZM35.3291 19.2782H34.2695C33.9411 19.2736 33.6276 19.1398 33.397 18.9059C33.1664 18.672 33.0371 18.3567 33.0371 18.0282C33.0371 17.6997 33.1664 17.3844 33.397 17.1505C33.6276 16.9166 33.9411 16.7828 34.2695 16.7782H35.329C35.6575 16.7828 35.9709 16.9166 36.2016 17.1505C36.4322 17.3844 36.5615 17.6997 36.5615 18.0282C36.5615 18.3566 36.4323 18.6719 36.2016 18.9059C35.971 19.1398 35.6576 19.2735 35.3291 19.2782ZM5.72951 19.2782H4.66995C4.34149 19.2736 4.02806 19.1398 3.79743 18.9059C3.56679 18.672 3.4375 18.3567 3.4375 18.0282C3.4375 17.6997 3.56679 17.3844 3.79743 17.1505C4.02806 16.9166 4.34149 16.7828 4.66995 16.7782H5.72953C6.05799 16.7828 6.37143 16.9166 6.60206 17.1505C6.83269 17.3844 6.96198 17.6997 6.96198 18.0282C6.96198 18.3567 6.83269 18.672 6.60206 18.9059C6.37143 19.1398 6.05797 19.2736 5.72951 19.2782ZM30.0886 9.18908C29.8431 9.18514 29.6042 9.10949 29.4011 8.97143C29.1981 8.83337 29.0398 8.63894 28.9459 8.41208C28.852 8.18522 28.8264 7.93584 28.8725 7.69466C28.9185 7.45347 29.034 7.23101 29.2049 7.05468L29.958 6.30212C30.1941 6.07541 30.5098 5.95032 30.8371 5.95371C31.1644 5.9571 31.4773 6.0887 31.7087 6.32025C31.9401 6.55181 32.0715 6.86485 32.0746 7.19218C32.0777 7.51951 31.9524 7.83502 31.7255 8.07097C31.309 8.45534 30.7291 9.25737 30.0886 9.18908ZM9.91042 9.18908C9.27217 9.25809 8.68721 8.45512 8.27345 8.07089C8.04636 7.83497 7.92088 7.51938 7.92395 7.19193C7.92703 6.86449 8.05842 6.55131 8.2899 6.31969C8.52137 6.08807 8.83446 5.95649 9.16191 5.9532C9.48935 5.94992 9.80501 6.07521 10.0411 6.30214L10.7942 7.05464C10.9651 7.23099 11.0806 7.45345 11.1266 7.69464C11.1726 7.93582 11.1471 8.18519 11.0531 8.41205C10.9592 8.6389 10.801 8.83333 10.5979 8.97139C10.3949 9.10946 10.1559 9.18513 9.91042 9.18908ZM19.9995 5.00818C19.8354 5.00822 19.6728 4.97592 19.5211 4.91312C19.3695 4.85031 19.2316 4.75824 19.1156 4.64216C18.9995 4.52608 18.9074 4.38826 18.8446 4.23659C18.7818 4.08491 18.7495 3.92235 18.7495 3.75818V2.69922C18.7495 2.3677 18.8812 2.04976 19.1157 1.81534C19.3501 1.58091 19.668 1.44922 19.9995 1.44922C20.3311 1.44922 20.649 1.58091 20.8834 1.81534C21.1178 2.04976 21.2495 2.3677 21.2495 2.69922V3.75818C21.2496 3.92235 21.2173 4.08491 21.1545 4.23659C21.0917 4.38826 20.9996 4.52608 20.8835 4.64216C20.7674 4.75824 20.6296 4.85031 20.4779 4.91312C20.3263 4.97592 20.1637 5.00822 19.9995 5.00818Z" fill="white"/>
</svg>
