<svg width="36" height="40" viewBox="0 0 36 40" fill="none" xmlns="http://www.w3.org/2000/svg">
<path d="M18 8.59375C14.3384 8.59375 11.3594 11.5727 11.3594 15.2344C11.3594 18.896 14.3384 21.875 18 21.875C21.6616 21.875 24.6406 18.896 24.6406 15.2344C24.6406 11.5727 21.6616 8.59375 18 8.59375ZM18 19.5312C15.6307 19.5312 13.7031 17.6037 13.7031 15.2344C13.7031 12.8651 15.6307 10.9375 18 10.9375C20.3693 10.9375 22.2969 12.8651 22.2969 15.2344C22.2969 17.6037 20.3693 19.5312 18 19.5312Z" fill="white"/>
<path d="M32.0625 32.9688C31.1711 32.9688 30.3567 33.3028 29.7364 33.8515L26.2031 31.8886V28.0034C26.5338 28.0269 26.8685 27.9105 27.115 27.6641L30.4296 24.3493C30.8098 23.9691 30.8824 23.379 30.6059 22.9179L29.4902 21.0583C29.7855 20.4752 30.0366 19.8676 30.2409 19.2414L32.3467 18.7149C32.8684 18.5845 33.2343 18.1159 33.2343 17.5781V12.8904C33.2343 12.3527 32.8684 11.884 32.3467 11.7536L30.2409 11.2271C30.0366 10.6009 29.7855 9.99336 29.4901 9.41016L30.6059 7.55055C30.8825 7.08945 30.8098 6.4993 30.4296 6.11914L27.115 2.80469C26.7348 2.42453 26.1447 2.35188 25.6836 2.62844L23.8239 3.74414C23.2407 3.44875 22.6333 3.19766 22.0071 2.99336L21.4806 0.8875C21.3502 0.365937 20.8816 0 20.3438 0H15.6561C15.1184 0 14.6498 0.365938 14.5193 0.887578L13.9928 2.99344C13.3667 3.19773 12.7593 3.44883 12.176 3.74422L10.3164 2.62852C9.85539 2.35188 9.26523 2.42453 8.885 2.80477L5.57039 6.11938C5.19023 6.49961 5.11758 7.08977 5.39422 7.55078L6.51 9.41039C6.21461 9.99352 5.96344 10.6012 5.75922 11.2273L3.65336 11.7538C3.13156 11.8841 2.76562 12.3528 2.76562 12.8905V17.5783C2.76562 18.1159 3.13156 18.5847 3.6532 18.7151L5.75906 19.2416C5.96328 19.8677 6.21438 20.4753 6.50977 21.0584L5.39406 22.918C5.11742 23.3791 5.19008 23.9692 5.57031 24.3495L8.88492 27.6642C9.13141 27.9107 9.46617 28.027 9.7968 28.0036V31.8888L6.26352 33.8517C5.64328 33.3028 4.82891 32.9688 3.9375 32.9688C1.99898 32.9688 0.421875 34.5459 0.421875 36.4844C0.421875 38.4229 1.99898 40 3.9375 40C5.87602 40 7.45312 38.4229 7.45312 36.4844C7.45312 36.285 7.43555 36.0898 7.40352 35.8994L11.5378 33.6026C11.9099 33.3959 12.1406 33.0037 12.1406 32.5781V26.7457L12.176 26.7245C12.7593 27.0199 13.3669 27.271 13.9929 27.4753L14.5194 29.5812C14.6498 30.1028 15.1184 30.4688 15.6562 30.4688H16.8281V33.1703C15.4641 33.6541 14.4844 34.9566 14.4844 36.4844C14.4844 38.4229 16.0615 40 18 40C19.9385 40 21.5156 38.4229 21.5156 36.4844C21.5156 34.9566 20.5359 33.6541 19.1719 33.1703V30.4688H20.3438C20.8815 30.4688 21.3502 30.1028 21.4806 29.5812L22.0071 27.4753C22.6331 27.271 23.2407 27.0199 23.824 26.7245L23.8594 26.7457V32.5781C23.8594 33.0037 24.0901 33.3959 24.4622 33.6025L28.5965 35.8993C28.5645 36.0897 28.5469 36.2849 28.5469 36.4843C28.5469 38.4228 30.124 39.9999 32.0625 39.9999C34.001 39.9999 35.5781 38.4228 35.5781 36.4843C35.5781 34.5458 34.001 32.9688 32.0625 32.9688ZM3.9375 37.6562C3.29133 37.6562 2.76562 37.1305 2.76562 36.4844C2.76562 35.8382 3.29133 35.3125 3.9375 35.3125C4.58367 35.3125 5.10938 35.8382 5.10938 36.4844C5.10938 37.1305 4.58367 37.6562 3.9375 37.6562ZM18 37.6562C17.3538 37.6562 16.8281 37.1305 16.8281 36.4844C16.8281 35.8382 17.3538 35.3125 18 35.3125C18.6462 35.3125 19.1719 35.8382 19.1719 36.4844C19.1719 37.1305 18.6462 37.6562 18 37.6562ZM24.4568 24.3709C24.0915 24.1517 23.6359 24.1481 23.2672 24.3614L23.2671 24.3615C22.4777 24.8183 21.6238 25.1713 20.7294 25.4106H20.7293C20.318 25.5207 19.9987 25.8452 19.8955 26.2584L19.4287 28.125H16.5713L16.1046 26.2584C16.0013 25.8453 15.6821 25.5207 15.2708 25.4106C14.3764 25.1713 13.5224 24.8183 12.733 24.3615L12.7329 24.3614C12.3641 24.148 11.9086 24.1517 11.5433 24.3709L9.89531 25.3597L7.87477 23.3391L8.86351 21.6912C9.08273 21.3258 9.08633 20.8702 8.87297 20.5014C8.41633 19.7121 8.06344 18.8584 7.82398 17.9637C7.71391 17.5523 7.38938 17.233 6.97625 17.1297L5.10938 16.6631V13.8056L6.97609 13.339C7.38922 13.2357 7.71375 12.9164 7.82383 12.5051V12.505C8.0632 11.6104 8.41617 10.7566 8.87289 9.96727C9.08625 9.59844 9.08266 9.14289 8.86344 8.7775L7.87461 7.12961L9.89516 5.10906L11.5433 6.09781C11.9086 6.31695 12.3641 6.32063 12.7328 6.10734L12.733 6.10727C13.5223 5.65055 14.3762 5.29758 15.2706 5.0582H15.2707C15.682 4.94813 16.0013 4.62359 16.1045 4.21047L16.5713 2.34375H19.4287L19.8954 4.21039C19.9987 4.62344 20.3179 4.94805 20.7292 5.05813H20.7293C21.6239 5.2975 22.4777 5.65055 23.267 6.10711L23.267 6.10719C23.6358 6.32055 24.0913 6.31695 24.4567 6.09773L26.1048 5.10898L28.1253 7.12953L27.1365 8.77742C26.9173 9.14281 26.9137 9.59836 27.127 9.96719C27.5837 10.7565 27.9366 11.6103 28.1761 12.5049C28.2862 12.9163 28.6107 13.2356 29.0238 13.3389L30.8906 13.8056V16.6631L29.0239 17.1298C28.6108 17.233 28.2863 17.5523 28.1762 17.9637V17.9638C27.9368 18.8584 27.5838 19.7122 27.1272 20.5015C26.9137 20.8703 26.9173 21.3259 27.1366 21.6912L28.1254 23.3391L26.1048 25.3598L24.4568 24.3709ZM32.0625 37.6562C31.4163 37.6562 30.8906 37.1305 30.8906 36.4844C30.8906 35.8382 31.4163 35.3125 32.0625 35.3125C32.7087 35.3125 33.2344 35.8382 33.2344 36.4844C33.2344 37.1305 32.7087 37.6562 32.0625 37.6562Z" fill="white"/>
</svg>
