<svg width="40" height="40" viewBox="0 0 40 40" fill="none" xmlns="http://www.w3.org/2000/svg">
<path d="M38.8281 19.0689H28.7936C28.1573 19.0689 27.5534 18.8607 27.058 18.4778C29.2898 16.4843 30.5859 13.6331 30.5859 10.5889C30.5859 4.75176 25.8371 0.00292969 20 0.00292969C14.1629 0.00292969 9.41406 4.75176 9.41406 10.5889C9.41406 13.2663 10.4159 15.8215 12.2352 17.7839C12.675 18.2583 13.1531 18.6875 13.6626 19.0689H1.17188C0.524687 19.0689 0 19.5936 0 20.2408V31.3424C0 31.9896 0.524687 32.5143 1.17188 32.5143H7.28344L13.8507 39.0816C14.4596 39.6911 15.2667 39.9968 16.0745 39.9968C16.8609 39.9967 17.648 39.7068 18.2525 39.1254C18.4909 38.8961 18.6871 38.634 18.8386 38.3489C19.3146 38.6281 19.8578 38.7774 20.4243 38.7774C21.2639 38.7774 22.0533 38.4505 22.6467 37.857C23.1609 37.3428 23.4747 36.6818 23.5497 35.9686C24.1444 35.9049 24.7241 35.6728 25.2108 35.2718H29.6372C32.0181 35.2718 33.3507 33.7711 33.9455 32.5147H38.8281C39.4753 32.5147 40 31.99 40 31.3429V20.2407C40 19.5936 39.4753 19.0689 38.8281 19.0689ZM11.7578 10.5889C11.7578 6.0441 15.4552 2.34668 20 2.34668C24.5448 2.34668 28.2422 6.0441 28.2422 10.5889C28.2422 13.1488 27.0647 15.5336 25.0633 17.0913C24.358 16.7998 23.5911 16.659 22.8148 16.6935C21.493 16.7518 20.2492 17.2993 19.312 18.2356L18.8037 18.7439C16.9484 18.4743 15.2422 17.5799 13.954 16.1903C12.5377 14.6628 11.7578 12.6735 11.7578 10.5889ZM20.9894 36.1996C20.6779 36.5111 20.1707 36.5113 19.8591 36.1996L17.6108 33.9512C17.1686 33.4975 16.3959 33.4979 15.9534 33.9511C15.4982 34.3924 15.4998 35.167 15.9534 35.6085L16.6087 36.2639C16.9036 36.602 16.9877 37.0323 16.6277 37.4362C16.3162 37.7358 15.8141 37.7308 15.5084 37.4248L8.59742 30.5138C8.37773 30.294 8.07961 30.1705 7.76883 30.1705H2.34375V21.4127H16.1349L12.2893 25.2583C11.8316 25.7159 11.8316 26.4579 12.2893 26.9156C13.4445 28.0707 14.9614 28.6483 16.4788 28.6482C17.9959 28.648 19.5135 28.0705 20.6684 26.9156L22.3285 25.2555L26.5659 29.4929C26.8775 29.8045 26.8775 30.3116 26.5659 30.6232C26.268 30.9338 25.732 30.9339 25.4345 30.6229L23.205 28.3933C22.7474 27.9357 22.0054 27.9357 21.5477 28.3933C21.0901 28.8509 21.0901 29.5929 21.5477 30.0506L23.7771 32.28C24.0889 32.5921 24.0889 33.0998 23.778 33.4111C23.4659 33.7228 22.9583 33.7228 22.6463 33.4111C22.646 33.4108 22.6457 33.4106 22.6455 33.4104L20.4079 31.1728C19.9503 30.7152 19.2083 30.7152 18.7506 31.1728C18.293 31.6304 18.293 32.3724 18.7506 32.83L20.9898 35.0693C21.1407 35.22 21.2238 35.4206 21.2238 35.634C21.2238 35.8475 21.1406 36.0484 20.9894 36.1996ZM37.6562 30.1709H33.125C32.5765 30.1709 32.1014 30.5513 31.9815 31.0865C31.9805 31.0911 31.8602 31.5611 31.5174 32.0214C31.0633 32.6314 30.4481 32.928 29.6371 32.928H27.2843C27.6296 32.7733 27.9477 32.5561 28.2233 32.2804C29.4487 31.055 29.4487 29.0611 28.2233 27.8357C28.2233 27.8357 23.2368 22.8109 23.1763 22.7505C22.7188 22.2929 21.9767 22.2929 21.5191 22.7505L19.0112 25.2583C17.905 26.3644 16.2494 26.5943 14.9145 25.9477L20.9689 19.8934C21.4905 19.3723 22.1827 19.0675 22.9174 19.035C23.7402 18.9997 24.5434 19.3119 25.1245 19.893C26.1046 20.873 27.4077 21.4127 28.7936 21.4127H37.6562V30.1709Z" fill="white"/>
<path d="M18.1588 13.6215C18.3876 13.8503 18.6875 13.9647 18.9874 13.9647C19.2872 13.9647 19.5872 13.8503 19.816 13.6215L24.2241 9.21334C24.6818 8.75576 24.6818 8.01373 24.2241 7.55607C23.7665 7.0985 23.0245 7.0985 22.5668 7.55607L18.9874 11.1355L17.4341 9.58225C16.9765 9.12467 16.2345 9.12467 15.7768 9.58225C15.3192 10.0398 15.3192 10.7819 15.7768 11.2395L18.1588 13.6215Z" fill="white"/>
</svg>
