<svg width="36" height="36" viewBox="0 0 36 36" fill="none" xmlns="http://www.w3.org/2000/svg">
<path d="M22.2981 23.3127H20.5507L22.1742 18.4414C22.3672 17.8622 22.3529 17.2339 22.1339 16.6641C21.9148 16.0942 21.5045 15.6182 20.9732 15.3174C20.4419 15.0166 19.8227 14.9097 19.2213 15.0151C18.6199 15.1205 18.0739 15.4315 17.6765 15.895L11.9255 22.6046C11.5316 22.2574 11.0251 22.0648 10.5 22.0627H8C7.42006 22.0634 6.86407 22.2941 6.45398 22.7042C6.0439 23.1143 5.8132 23.6702 5.8125 24.2502V33.0002C5.8132 33.5801 6.0439 34.1361 6.45398 34.5462C6.86407 34.9563 7.42006 35.187 8 35.1877H10.5C10.841 35.1867 11.177 35.1058 11.481 34.9514C11.785 34.797 12.0486 34.5735 12.2505 34.2987L12.5111 34.429C13.5096 34.9266 14.6097 35.1862 15.7252 35.1877H21.0481C21.815 35.1886 22.56 34.9327 23.1645 34.4607C23.7689 33.9888 24.1979 33.3281 24.3831 32.5839L25.6331 27.5833C25.7597 27.0766 25.7691 26.5476 25.6607 26.0367C25.5523 25.5257 25.3288 25.0462 25.0073 24.6345C24.6858 24.2228 24.2748 23.8898 23.8053 23.6608C23.3359 23.4318 22.8204 23.3127 22.2981 23.3127ZM10.5 33.3127H8C7.91717 33.3125 7.83777 33.2796 7.7792 33.221C7.72063 33.1624 7.68766 33.083 7.6875 33.0002V24.2502C7.68766 24.1674 7.72063 24.088 7.7792 24.0294C7.83777 23.9708 7.91717 23.9378 8 23.9377H10.5C10.5828 23.9378 10.6622 23.9708 10.7208 24.0294C10.7794 24.088 10.8123 24.1674 10.8125 24.2502V33.0002C10.8123 33.083 10.7794 33.1624 10.7208 33.221C10.6622 33.2796 10.5828 33.3125 10.5 33.3127ZM23.8142 27.1286L22.5642 32.1286C22.48 32.4669 22.285 32.7673 22.0102 32.9819C21.7354 33.1965 21.3967 33.313 21.0481 33.3127H15.7252C14.9007 33.3116 14.0876 33.1197 13.3497 32.7518L12.6875 32.421V24.5969L19.0999 17.1158C19.2143 16.9823 19.3715 16.8927 19.5447 16.8623C19.7179 16.8319 19.8963 16.8626 20.0493 16.9492C20.2024 17.0358 20.3206 17.1728 20.3837 17.3369C20.4469 17.501 20.4511 17.682 20.3956 17.8488L18.3607 23.9536C18.3137 24.0945 18.3009 24.2446 18.3232 24.3914C18.3456 24.5383 18.4026 24.6777 18.4894 24.7983C18.5763 24.9188 18.6905 25.017 18.8228 25.0847C18.955 25.1524 19.1014 25.1877 19.25 25.1877H22.2981C22.5355 25.1876 22.7699 25.2416 22.9833 25.3457C23.1967 25.4498 23.3836 25.6011 23.5297 25.7882C23.6759 25.9753 23.7775 26.1933 23.8268 26.4256C23.8761 26.6578 23.8718 26.8982 23.8142 27.1286Z" fill="white"/>
<path d="M24.3126 5.30957C24.1789 4.98489 23.9516 4.70734 23.6597 4.51224C23.3677 4.31714 23.0244 4.21331 22.6732 4.21398L20.6505 4.27441L19.6288 1.88855C19.492 1.5692 19.2645 1.29701 18.9745 1.10574C18.6845 0.914458 18.3447 0.8125 17.9973 0.8125C17.6499 0.8125 17.3101 0.914458 17.0201 1.10574C16.7301 1.29701 16.5026 1.5692 16.3658 1.88855L15.4363 4.21398H13.3214C12.9704 4.21406 12.6273 4.31819 12.3355 4.51322C12.0437 4.70826 11.8163 4.98543 11.682 5.3097C11.5477 5.63398 11.5125 5.99079 11.581 6.33504C11.6494 6.67929 11.8184 6.99552 12.0665 7.24375L13.6248 8.73363L12.8759 11.7292C12.7912 12.0667 12.8075 12.4216 12.9229 12.7499C13.0383 13.0781 13.2477 13.3652 13.525 13.5754C13.8023 13.7855 14.1352 13.9095 14.4825 13.9319C14.8297 13.9543 15.1758 13.8741 15.4778 13.7012L17.9473 12.2328L20.5163 13.7007C20.8183 13.8734 21.1644 13.9536 21.5115 13.9313C21.8587 13.9089 22.1917 13.785 22.469 13.5749C22.7463 13.3648 22.9557 13.0779 23.0713 12.7497C23.1868 12.4216 23.2033 12.0667 23.1188 11.7292L22.3436 8.82886L23.9281 7.24375C24.177 6.99597 24.3465 6.67969 24.415 6.33523C24.4835 5.99076 24.4478 5.63371 24.3126 5.30957ZM21.0179 7.50317C20.8021 7.72051 20.6457 7.98974 20.5639 8.28498C20.4822 8.58021 20.4777 8.89152 20.5511 9.18896L21.2432 11.9563L18.8781 10.605C18.6098 10.4523 18.3064 10.372 17.9977 10.3718C17.689 10.3717 17.3856 10.4519 17.1172 10.6044L14.7515 11.9562L15.4442 9.18708C15.5172 8.88986 15.5125 8.57888 15.4306 8.28399C15.3487 7.9891 15.1924 7.7202 14.9767 7.50312L13.5631 6.08898H15.4363C15.7837 6.08902 16.1235 5.98707 16.4135 5.79579C16.7035 5.60451 16.931 5.3323 17.0678 5.01293L17.9973 2.84192L18.9275 5.01355C19.0642 5.33279 19.2916 5.60488 19.5815 5.79606C19.8714 5.98723 20.2111 6.08909 20.5584 6.08898H22.4315L21.0179 7.50317Z" fill="white"/>
<path d="M1.28184 12.3211L2.42877 13.4691L1.87273 15.6957C1.79637 16.0002 1.81124 16.3205 1.91549 16.6167C2.01974 16.9128 2.20878 17.1718 2.45907 17.3613C2.70936 17.5509 3.00987 17.6626 3.32319 17.6827C3.63651 17.7028 3.94883 17.6303 4.22127 17.4743L6.12377 16.3872L8.02562 17.4743C8.29812 17.6301 8.6104 17.7024 8.92368 17.6823C9.23695 17.6621 9.53739 17.5504 9.78768 17.3609C10.038 17.1714 10.227 16.9126 10.3314 16.6165C10.4358 16.3205 10.4509 16.0003 10.3749 15.6957L9.81883 13.4691L10.9657 12.3211C11.1897 12.097 11.3423 11.8116 11.4042 11.5009C11.4661 11.1902 11.4344 10.8681 11.3132 10.5753C11.192 10.2826 10.9868 10.0324 10.7234 9.85628C10.46 9.68019 10.1503 9.58615 9.83348 9.58605H8.33568L7.59593 7.85876C7.47253 7.57058 7.26725 7.32495 7.00556 7.15233C6.74387 6.97971 6.43726 6.8877 6.12377 6.8877C5.81027 6.8877 5.50367 6.97971 5.24197 7.15233C4.98028 7.32495 4.77501 7.57058 4.6516 7.85876L3.91186 9.58605H2.41405C2.09723 9.58615 1.78754 9.68019 1.52416 9.85628C1.26077 10.0324 1.05551 10.2826 0.934324 10.5753C0.81314 10.8681 0.781474 11.1902 0.843331 11.5009C0.905188 11.8116 1.05779 12.097 1.28184 12.3211ZM4.0919 11.4611C4.40539 11.4614 4.71205 11.3695 4.97379 11.197C5.23552 11.0245 5.44079 10.7788 5.56408 10.4906L6.12377 9.18385L6.68345 10.49C6.80661 10.7784 7.01183 11.0242 7.27358 11.1968C7.53533 11.3695 7.84206 11.4614 8.15563 11.4611H9.1743L8.38329 12.2527C8.18836 12.4486 8.04721 12.6914 7.97344 12.9577C7.89967 13.224 7.89578 13.5048 7.96214 13.7731L8.40099 15.5291L6.91783 14.6814C6.67567 14.5437 6.4019 14.4714 6.12338 14.4715C5.84485 14.4716 5.57113 14.5442 5.32908 14.682L3.84658 15.5291L4.28543 13.7738C4.35184 13.5054 4.34797 13.2245 4.2742 12.9581C4.20043 12.6916 4.05925 12.4487 3.86428 12.2528L3.07327 11.4611L4.0919 11.4611Z" fill="white"/>
<path d="M33.5963 9.70775H32.1406L31.4198 8.02624C31.2975 7.74031 31.094 7.49656 30.8344 7.32524C30.5749 7.15392 30.2707 7.06257 29.9597 7.0625C29.6488 7.06243 29.3446 7.15367 29.085 7.32488C28.8253 7.49609 28.6217 7.73974 28.4993 8.02563L27.7784 9.70775H26.3228C26.0086 9.70794 25.7015 9.80124 25.4404 9.97586C25.1792 10.1505 24.9756 10.3986 24.8554 10.6888C24.7351 10.9791 24.7036 11.2984 24.7648 11.6066C24.826 11.9147 24.9771 12.1978 25.1991 12.4202L26.3167 13.5383L25.774 15.7112C25.6981 16.0133 25.7127 16.3311 25.816 16.625C25.9192 16.9188 26.1067 17.1758 26.3549 17.364C26.6032 17.5521 26.9013 17.6631 27.2121 17.6831C27.523 17.703 27.8329 17.6312 28.1032 17.4764L29.9592 16.4156L31.8153 17.4758C32.0855 17.6305 32.3953 17.7024 32.7061 17.6825C33.0169 17.6626 33.3149 17.5518 33.5632 17.3638C33.8115 17.1758 33.999 16.919 34.1024 16.6252C34.2059 16.3315 34.2207 16.0139 34.145 15.7118L33.6024 13.5383L34.7194 12.4202C34.9415 12.198 35.0928 11.9149 35.1541 11.6067C35.2154 11.2986 35.1839 10.9792 35.0637 10.6889C34.9435 10.3986 34.74 10.1504 34.4788 9.97579C34.2176 9.80116 33.9105 9.70789 33.5963 9.70775ZM32.162 12.3274C31.9685 12.5216 31.8283 12.7624 31.7551 13.0266C31.6818 13.2908 31.678 13.5694 31.7439 13.8356L32.1632 15.5153L30.749 14.7065C30.5086 14.5696 30.2368 14.4976 29.9602 14.4975C29.6836 14.4973 29.4117 14.5692 29.1712 14.7059L27.7558 15.5152L28.1751 13.8362C28.241 13.57 28.2372 13.2913 28.1641 13.0271C28.0909 12.7628 27.951 12.5218 27.7576 12.3274L27.013 11.5828H27.9676C28.2786 11.583 28.5827 11.4918 28.8423 11.3206C29.1019 11.1494 29.3054 10.9056 29.4276 10.6196L29.9592 9.37819L30.4914 10.619C30.6135 10.9051 30.8169 11.149 31.0765 11.3204C31.3361 11.4918 31.6404 11.583 31.9514 11.5828H32.906L32.162 12.3274Z" fill="white"/>
</svg>
