<svg width="972" height="320" viewBox="0 0 972 320" fill="none" xmlns="http://www.w3.org/2000/svg">
<mask id="mask0_1061_2269" style="mask-type:luminance" maskUnits="userSpaceOnUse" x="109" y="96" width="752" height="172">
<path d="M109 267.607H861V96.3931H109V267.607Z" fill="white"/>
</mask>
<g mask="url(#mask0_1061_2269)">
<g opacity="0.6">
<path d="M485.001 11.6906V109.416C485.001 153.327 434.05 188.924 371.198 188.924H184.71C147.897 188.924 118.079 209.809 118.172 235.529V339.172" stroke="url(#paint0_radial_1061_2269)" stroke-width="2.5"/>
<path d="M485.004 11.6917V110.35C485.004 154.266 537.005 189.868 601.151 189.868H782.608C820.283 189.868 850.907 210.682 851.178 236.478V341.891" stroke="url(#paint1_radial_1061_2269)" stroke-width="2.5"/>
<path d="M877.785 306.375H92.2137V183H877.785V306.375Z" fill="url(#paint2_linear_1061_2269)"/>
<path d="M485 108V263.361" stroke="url(#paint3_linear_1061_2269)" stroke-width="2.5"/>
<path d="M567 42H403V171H567V42Z" fill="url(#paint4_linear_1061_2269)"/>
</g>
</g>
<rect x="405.5" y="240.5" width="159" height="79" rx="11.5" fill="black" stroke="#323232"/>
<g clip-path="url(#clip0_1061_2269)">
<path d="M453.026 288.118C452.555 288.118 452.11 288.23 451.714 288.427L449.67 286.383C449.494 286.207 449.256 286.108 449.007 286.108H445.926V287.985H448.618L450.388 289.754C449.401 291.662 450.869 294.042 453.026 294.014C456.931 293.866 456.931 288.266 453.026 288.118Z" fill="url(#paint5_linear_1061_2269)"/>
<path d="M458.05 281.084C456.753 281.084 455.65 281.927 455.257 283.094H453.415L451.68 281.359C451.504 281.183 451.265 281.084 451.017 281.084H445.926V282.96H450.628L452.363 284.695C452.539 284.871 452.778 284.97 453.026 284.97H455.257C456.358 288.09 460.933 287.38 460.998 284.032C460.998 282.406 459.676 281.084 458.05 281.084Z" fill="url(#paint6_linear_1061_2269)"/>
<path d="M449.67 273.643L451.714 271.598C453.622 272.585 456.003 271.117 455.974 268.96C455.974 267.334 454.652 266.012 453.026 266.012C450.869 265.983 449.401 268.364 450.388 270.272L448.618 272.041H445.926V273.917H449.007C449.256 273.917 449.494 273.818 449.67 273.643Z" fill="url(#paint7_linear_1061_2269)"/>
<path d="M451.68 278.666L453.415 276.931H455.257C456.358 280.051 460.933 279.342 460.998 275.993C460.932 272.644 456.357 271.936 455.257 275.055H453.026C452.778 275.055 452.539 275.154 452.363 275.33L450.628 277.065H445.926V278.941H451.017C451.266 278.941 451.504 278.842 451.68 278.666Z" fill="url(#paint8_linear_1061_2269)"/>
<path d="M440.468 264.002C437.236 263.89 435.509 268.677 438.208 268.905C438.726 268.905 439.146 269.325 439.146 269.843C439.146 270.361 438.726 270.781 438.208 270.781C436.771 270.781 435.552 269.829 435.151 268.522H434.818C432.843 268.522 431.237 270.128 431.237 272.103C431.237 273.455 432.336 274.555 433.688 274.555C434.931 274.6 434.931 276.385 433.688 276.431H432.558C427.812 276.612 427.816 283.415 432.558 283.594H433.688C434.931 283.641 434.931 285.425 433.688 285.471C432.336 285.471 431.237 286.57 431.237 287.922C431.237 289.897 432.843 291.504 434.818 291.504H435.151C435.552 290.197 436.771 289.244 438.208 289.244C438.726 289.244 439.146 289.664 439.146 290.182C439.146 290.7 438.726 291.12 438.208 291.12C437.479 291.12 436.886 291.713 436.886 292.442C437.066 297.186 443.87 297.186 444.049 292.442V285.662C443.954 283.162 440.37 283.164 440.276 285.662C440.276 286.18 439.856 286.6 439.338 286.6C438.82 286.6 438.4 286.18 438.4 285.662C438.359 282.804 441.616 280.941 444.049 282.409V277.617C441.615 279.085 438.36 277.222 438.4 274.363C438.4 273.845 438.82 273.425 439.338 273.425C439.856 273.425 440.276 273.845 440.276 274.363C440.371 276.863 443.955 276.862 444.049 274.363V267.584C444.049 265.609 442.443 264.002 440.468 264.002Z" fill="url(#paint9_linear_1061_2269)"/>
</g>
<path d="M478.168 286L473.736 274.8H475.336L479.848 286H478.168ZM469.144 286L473.656 274.8H475.256L470.824 286H469.144ZM471.272 283.008V281.6H477.72V283.008H471.272ZM481.408 286V274.8H482.976V286H481.408ZM489.368 286V278H490.793L490.857 279.104C491.113 278.677 491.433 278.357 491.817 278.144C492.201 277.92 492.643 277.808 493.145 277.808C493.785 277.808 494.329 277.957 494.777 278.256C495.225 278.544 495.55 278.987 495.753 279.584C495.987 279.008 496.318 278.571 496.745 278.272C497.171 277.963 497.678 277.808 498.265 277.808C499.171 277.808 499.881 278.107 500.393 278.704C500.905 279.291 501.155 280.197 501.145 281.424V286H499.641V281.904C499.641 281.179 499.561 280.629 499.401 280.256C499.251 279.872 499.049 279.605 498.793 279.456C498.537 279.307 498.238 279.227 497.897 279.216C497.299 279.216 496.835 279.445 496.505 279.904C496.185 280.363 496.025 281.008 496.025 281.84V286H494.505V281.904C494.505 281.179 494.43 280.629 494.281 280.256C494.131 279.872 493.923 279.605 493.657 279.456C493.401 279.307 493.102 279.227 492.761 279.216C492.163 279.216 491.699 279.445 491.369 279.904C491.049 280.363 490.889 281.008 490.889 281.84V286H489.368ZM506.703 286.192C505.903 286.192 505.199 286.016 504.591 285.664C503.983 285.301 503.503 284.805 503.151 284.176C502.81 283.547 502.639 282.821 502.639 282C502.639 281.179 502.81 280.453 503.151 279.824C503.493 279.195 503.967 278.704 504.575 278.352C505.183 277.989 505.882 277.808 506.671 277.808C507.461 277.808 508.159 277.989 508.767 278.352C509.375 278.704 509.85 279.195 510.191 279.824C510.533 280.453 510.703 281.179 510.703 282C510.703 282.821 510.533 283.547 510.191 284.176C509.85 284.805 509.375 285.301 508.767 285.664C508.17 286.016 507.482 286.192 506.703 286.192ZM506.703 284.8C507.183 284.8 507.61 284.683 507.983 284.448C508.357 284.203 508.645 283.872 508.847 283.456C509.061 283.04 509.167 282.555 509.167 282C509.167 281.445 509.061 280.96 508.847 280.544C508.645 280.128 508.351 279.803 507.967 279.568C507.583 279.323 507.151 279.2 506.671 279.2C506.181 279.2 505.749 279.323 505.375 279.568C505.002 279.803 504.709 280.128 504.495 280.544C504.282 280.96 504.175 281.445 504.175 282C504.175 282.555 504.282 283.04 504.495 283.456C504.709 283.872 505.007 284.203 505.391 284.448C505.775 284.683 506.213 284.8 506.703 284.8ZM518.225 286L518.161 284.512V274.8H519.665V286H518.225ZM515.536 286.192C514.811 286.192 514.177 286.016 513.633 285.664C513.099 285.312 512.678 284.821 512.368 284.192C512.07 283.563 511.921 282.832 511.921 282C511.921 281.157 512.07 280.427 512.368 279.808C512.678 279.179 513.099 278.688 513.633 278.336C514.177 277.984 514.811 277.808 515.536 277.808C516.209 277.808 516.79 277.984 517.281 278.336C517.782 278.688 518.166 279.179 518.433 279.808C518.699 280.427 518.833 281.157 518.833 282C518.833 282.832 518.699 283.563 518.433 284.192C518.166 284.821 517.782 285.312 517.281 285.664C516.79 286.016 516.209 286.192 515.536 286.192ZM515.889 284.816C516.337 284.816 516.731 284.699 517.073 284.464C517.414 284.219 517.681 283.888 517.873 283.472C518.065 283.045 518.161 282.555 518.161 282C518.161 281.445 518.065 280.96 517.873 280.544C517.681 280.117 517.414 279.787 517.073 279.552C516.731 279.307 516.331 279.184 515.873 279.184C515.403 279.184 514.987 279.307 514.625 279.552C514.262 279.787 513.979 280.117 513.777 280.544C513.574 280.96 513.473 281.445 513.473 282C513.473 282.555 513.574 283.045 513.777 283.472C513.99 283.888 514.278 284.219 514.641 284.464C515.003 284.699 515.419 284.816 515.889 284.816ZM525.311 286.192C524.532 286.192 523.844 286.016 523.247 285.664C522.649 285.301 522.18 284.805 521.839 284.176C521.497 283.547 521.327 282.821 521.327 282C521.327 281.179 521.497 280.453 521.839 279.824C522.18 279.195 522.649 278.704 523.247 278.352C523.855 277.989 524.548 277.808 525.327 277.808C526.063 277.808 526.708 277.995 527.263 278.368C527.817 278.731 528.249 279.253 528.559 279.936C528.879 280.608 529.039 281.403 529.039 282.32H522.575L522.863 282.08C522.863 282.645 522.975 283.136 523.199 283.552C523.423 283.968 523.727 284.288 524.111 284.512C524.495 284.725 524.932 284.832 525.423 284.832C525.956 284.832 526.399 284.709 526.751 284.464C527.113 284.208 527.396 283.888 527.599 283.504L528.911 284.112C528.697 284.528 528.42 284.896 528.079 285.216C527.737 285.525 527.332 285.765 526.863 285.936C526.404 286.107 525.887 286.192 525.311 286.192ZM522.959 281.36L522.655 281.12H527.711L527.423 281.36C527.423 280.891 527.327 280.491 527.135 280.16C526.943 279.819 526.687 279.563 526.367 279.392C526.047 279.211 525.689 279.12 525.295 279.12C524.911 279.12 524.537 279.211 524.175 279.392C523.823 279.563 523.529 279.813 523.295 280.144C523.071 280.475 522.959 280.88 522.959 281.36ZM530.54 286V274.8H532.06V286H530.54ZM537.029 286.192C536.464 286.192 535.957 286.107 535.509 285.936C535.072 285.765 534.699 285.536 534.389 285.248C534.091 284.96 533.867 284.635 533.717 284.272L535.029 283.696C535.2 284.027 535.456 284.299 535.797 284.512C536.139 284.725 536.517 284.832 536.933 284.832C537.392 284.832 537.771 284.747 538.069 284.576C538.368 284.405 538.517 284.165 538.517 283.856C538.517 283.557 538.405 283.323 538.181 283.152C537.957 282.981 537.632 282.843 537.205 282.736L536.453 282.544C535.707 282.341 535.125 282.037 534.709 281.632C534.304 281.227 534.101 280.768 534.101 280.256C534.101 279.477 534.352 278.875 534.853 278.448C535.355 278.021 536.096 277.808 537.077 277.808C537.557 277.808 537.995 277.877 538.389 278.016C538.795 278.155 539.136 278.352 539.413 278.608C539.701 278.864 539.904 279.168 540.021 279.52L538.741 280.096C538.613 279.776 538.395 279.541 538.085 279.392C537.776 279.232 537.413 279.152 536.997 279.152C536.571 279.152 536.235 279.248 535.989 279.44C535.744 279.621 535.621 279.877 535.621 280.208C535.621 280.389 535.723 280.565 535.925 280.736C536.139 280.896 536.448 281.029 536.853 281.136L537.717 281.344C538.24 281.472 538.672 281.669 539.013 281.936C539.355 282.192 539.611 282.485 539.781 282.816C539.952 283.136 540.037 283.472 540.037 283.824C540.037 284.304 539.904 284.725 539.637 285.088C539.381 285.44 539.024 285.712 538.565 285.904C538.117 286.096 537.605 286.192 537.029 286.192Z" fill="#EDEDED"/>
<rect x="445.5" y="0.5" width="79" height="79" rx="11.5" fill="#111111" stroke="#323232"/>
<g clip-path="url(#clip1_1061_2269)">
<path fill-rule="evenodd" clip-rule="evenodd" d="M479.188 40.5809C478.184 40.581 477.202 40.2833 476.366 39.7253C475.531 39.1673 474.88 38.3742 474.495 37.4461C474.111 36.518 474.01 35.4968 474.206 34.5115C474.402 33.5262 474.886 32.6212 475.596 31.9108C476.306 31.2004 477.211 30.7166 478.196 30.5205C479.182 30.3245 480.203 30.425 481.131 30.8094C482.059 31.1938 482.852 31.8448 483.411 32.6801C483.969 33.5154 484.267 34.4974 484.267 35.502C484.265 36.8483 483.729 38.1391 482.777 39.0912C481.826 40.0433 480.535 40.579 479.188 40.5809ZM482.435 59.012H475.946C475.028 59.0113 474.147 58.6564 473.484 58.0214C472.822 57.3863 472.431 56.5201 472.391 55.6034H485.986C485.947 56.5198 485.556 57.3859 484.895 58.021C484.233 58.6561 483.352 59.0112 482.435 59.012ZM487.919 52.8004C487.918 53.289 487.724 53.7574 487.378 54.1029C487.033 54.4484 486.565 54.6428 486.076 54.6435H472.301C472.058 54.6451 471.817 54.5986 471.592 54.5067C471.367 54.4148 471.163 54.2793 470.99 54.108C470.818 53.9368 470.681 53.7331 470.588 53.5087C470.494 53.2844 470.446 53.0438 470.446 52.8007C470.446 52.5577 470.494 52.3171 470.588 52.0928C470.681 51.8684 470.818 51.6647 470.99 51.4934C471.163 51.3222 471.367 51.1867 471.592 51.0948C471.817 51.0029 472.058 50.9564 472.301 50.958H486.076C486.564 50.9585 487.033 51.1528 487.378 51.4982C487.724 51.8435 487.918 52.3119 487.919 52.8004H487.919ZM472.388 49.998H478.711V41.5201C477.197 41.4 475.784 40.7139 474.754 39.5985C473.724 38.4831 473.151 37.0204 473.151 35.502C473.151 33.9835 473.724 32.5208 474.754 31.4054C475.784 30.29 477.197 29.6039 478.711 29.4838V20.9883C471.109 21.2418 465 27.5055 465 35.1684C465 37.4863 465.567 39.7689 466.653 41.8166C467.739 43.8644 469.31 45.6149 471.229 46.9151C471.591 47.1531 471.887 47.4786 472.089 47.8613C472.292 48.244 472.394 48.6716 472.388 49.1045V49.998H472.388ZM490.217 37.1995V33.8037L488.216 33.558C488.121 33.5466 488.031 33.5069 487.958 33.4438C487.886 33.3808 487.834 33.2974 487.81 33.2045C487.606 32.4433 487.303 31.7124 486.907 31.0309C486.859 30.9479 486.837 30.8527 486.844 30.7572C486.851 30.6617 486.886 30.5704 486.945 30.495L488.186 28.9055L485.786 26.504L484.195 27.7455C484.12 27.8045 484.029 27.8396 483.934 27.8462C483.839 27.8527 483.744 27.8305 483.661 27.7823C482.98 27.3871 482.248 27.0842 481.487 26.8816C481.394 26.8569 481.311 26.8051 481.248 26.7328C481.185 26.6605 481.145 26.5711 481.133 26.4759L480.885 24.4744H479.67V29.4838C481.184 29.6039 482.597 30.29 483.627 31.4054C484.657 32.5208 485.23 33.9835 485.23 35.502C485.23 37.0204 484.657 38.4831 483.627 39.5985C482.597 40.7139 481.184 41.4 479.67 41.5201V46.5286H480.885L481.133 44.5271C481.145 44.4321 481.185 44.3427 481.248 44.2706C481.311 44.1984 481.394 44.1468 481.487 44.1223C482.248 43.9197 482.979 43.6168 483.661 43.2216C483.743 43.1732 483.838 43.1509 483.934 43.1575C484.029 43.164 484.12 43.1992 484.195 43.2584L485.786 44.5002L488.186 42.0987L486.945 40.5091C486.886 40.4335 486.851 40.342 486.844 40.2464C486.837 40.1508 486.859 40.0554 486.907 39.9723C487.303 39.291 487.606 38.5602 487.81 37.799C487.834 37.7062 487.886 37.6228 487.959 37.5599C488.031 37.497 488.121 37.4573 488.216 37.4462L490.217 37.1997V37.1995ZM496.916 29.9406H490.921C490.857 29.9398 490.794 29.9516 490.735 29.9754C490.676 29.9991 490.622 30.0344 490.577 30.079C490.532 30.1237 490.496 30.1769 490.472 30.2355C490.447 30.2941 490.435 30.357 490.435 30.4206C490.435 30.4841 490.447 30.5471 490.472 30.6057C490.496 30.6643 490.532 30.7175 490.577 30.7622C490.622 30.8068 490.676 30.842 490.735 30.8658C490.794 30.8895 490.857 30.9014 490.921 30.9005H496.973C497.39 30.9005 497.695 30.6397 497.879 30.1262L499.143 26.6064C499.255 26.6229 499.369 26.6311 499.482 26.6311C500.061 26.6319 500.621 26.423 501.057 26.0429C501.494 25.6629 501.779 25.1376 501.858 24.5641C501.938 23.9905 501.807 23.4077 501.489 22.9232C501.172 22.4388 500.69 22.0857 500.133 21.9291C499.576 21.7725 498.98 21.8231 498.457 22.0716C497.934 22.32 497.519 22.7494 497.288 23.2804C497.057 23.8114 497.027 24.408 497.202 24.9599C497.377 25.5118 497.746 25.9816 498.241 26.2824L496.977 29.8023C496.96 29.85 496.94 29.8963 496.916 29.9406H496.916ZM499.482 44.3727C499.369 44.3728 499.255 44.3809 499.143 44.3968L497.879 40.8777C497.695 40.3633 497.39 40.1034 496.973 40.1034H490.921C490.857 40.1026 490.794 40.1144 490.735 40.1381C490.676 40.1619 490.622 40.1971 490.577 40.2418C490.532 40.2864 490.496 40.3396 490.472 40.3982C490.447 40.4569 490.435 40.5198 490.435 40.5833C490.435 40.6469 490.447 40.7098 490.472 40.7684C490.496 40.8271 490.532 40.8802 490.577 40.9249C490.622 40.9695 490.676 41.0048 490.735 41.0285C490.794 41.0523 490.857 41.0641 490.921 41.0633H496.916C496.941 41.1074 496.961 41.1537 496.977 41.2016L498.241 44.7215C497.747 45.022 497.379 45.4909 497.205 46.0416C497.031 46.5923 497.061 47.1876 497.292 47.7173C497.522 48.2469 497.937 48.6752 498.459 48.9229C498.981 49.1707 499.575 49.221 500.131 49.0648C500.687 48.9085 501.168 48.5561 501.484 48.0728C501.8 47.5895 501.931 47.008 501.852 46.4358C501.773 45.8636 501.489 45.3394 501.054 44.9601C500.618 44.5808 500.06 44.3721 499.482 44.3727ZM491.176 35.422V35.5817C491.177 35.6878 491.219 35.7895 491.294 35.8645C491.369 35.9395 491.471 35.9818 491.577 35.982H500.264C500.383 36.5627 500.713 37.0786 501.191 37.4297C501.669 37.7808 502.26 37.9421 502.849 37.8823C503.439 37.8226 503.986 37.546 504.383 37.1062C504.781 36.6664 505.001 36.0947 505.001 35.5019C505.001 34.9091 504.781 34.3374 504.383 33.8976C503.986 33.4578 503.439 33.1812 502.849 33.1214C502.26 33.0616 501.669 33.2229 501.191 33.574C500.713 33.9251 500.383 34.4411 500.264 35.0218H491.577C491.471 35.022 491.369 35.0642 491.294 35.1392C491.219 35.2142 491.177 35.3159 491.176 35.422Z" fill="url(#paint10_linear_1061_2269)"/>
</g>
<path d="M395.513 102V90.8H397.705V102H395.513ZM399.834 102V94H401.818L401.946 95.472V102H399.834ZM405.13 102V97.904H407.242V102H405.13ZM405.13 97.904C405.13 97.36 405.066 96.9387 404.938 96.64C404.821 96.3413 404.65 96.128 404.426 96C404.202 95.8613 403.941 95.792 403.642 95.792C403.098 95.7813 402.677 95.9467 402.378 96.288C402.09 96.6293 401.946 97.136 401.946 97.808H401.242C401.242 96.9547 401.365 96.2347 401.61 95.648C401.866 95.0507 402.218 94.5973 402.666 94.288C403.125 93.968 403.658 93.808 404.266 93.808C404.895 93.808 405.434 93.936 405.882 94.192C406.33 94.448 406.671 94.848 406.906 95.392C407.141 95.9253 407.253 96.6187 407.242 97.472V97.904H405.13ZM408.928 102V94H410.912L411.04 95.472V102H408.928ZM414.224 102V97.904H416.336V102H414.224ZM414.224 97.904C414.224 97.36 414.16 96.9387 414.032 96.64C413.914 96.3413 413.744 96.128 413.52 96C413.296 95.8613 413.034 95.792 412.736 95.792C412.192 95.7813 411.77 95.9467 411.472 96.288C411.184 96.6293 411.04 97.136 411.04 97.808H410.336C410.336 96.9547 410.458 96.2347 410.704 95.648C410.96 95.0507 411.312 94.5973 411.76 94.288C412.218 93.968 412.752 93.808 413.36 93.808C413.989 93.808 414.528 93.936 414.976 94.192C415.424 94.448 415.765 94.848 416 95.392C416.234 95.9253 416.346 96.6187 416.336 97.472V97.904H414.224ZM421.781 102.192C420.971 102.192 420.245 102.016 419.605 101.664C418.976 101.301 418.48 100.805 418.117 100.176C417.765 99.5467 417.589 98.8213 417.589 98C417.589 97.1787 417.765 96.4533 418.117 95.824C418.469 95.1947 418.96 94.704 419.589 94.352C420.219 93.9893 420.939 93.808 421.749 93.808C422.571 93.808 423.296 93.9893 423.925 94.352C424.555 94.704 425.045 95.1947 425.397 95.824C425.749 96.4533 425.925 97.1787 425.925 98C425.925 98.8213 425.749 99.5467 425.397 100.176C425.045 100.805 424.555 101.301 423.925 101.664C423.307 102.016 422.592 102.192 421.781 102.192ZM421.781 100.24C422.176 100.24 422.523 100.144 422.821 99.952C423.12 99.76 423.349 99.4987 423.509 99.168C423.68 98.8267 423.765 98.4373 423.765 98C423.765 97.5627 423.68 97.1787 423.509 96.848C423.339 96.5067 423.099 96.24 422.789 96.048C422.491 95.856 422.144 95.76 421.749 95.76C421.365 95.76 421.019 95.856 420.709 96.048C420.411 96.24 420.176 96.5067 420.005 96.848C419.835 97.1787 419.749 97.5627 419.749 98C419.749 98.4373 419.835 98.8267 420.005 99.168C420.176 99.4987 420.416 99.76 420.725 99.952C421.035 100.144 421.387 100.24 421.781 100.24ZM429.631 102L432.671 94H434.847L431.567 102H429.631ZM429.455 102L426.175 94H428.351L431.391 102H429.455ZM440.447 102L440.383 100.384V97.952C440.383 97.472 440.33 97.0613 440.223 96.72C440.127 96.3787 439.967 96.1173 439.743 95.936C439.53 95.744 439.236 95.648 438.863 95.648C438.522 95.648 438.212 95.7227 437.935 95.872C437.658 96.0213 437.423 96.2507 437.231 96.56L435.375 95.92C435.524 95.5787 435.743 95.248 436.031 94.928C436.319 94.5973 436.692 94.3307 437.151 94.128C437.62 93.9147 438.191 93.808 438.863 93.808C439.674 93.808 440.346 93.9627 440.879 94.272C441.423 94.5813 441.823 95.0187 442.079 95.584C442.346 96.1387 442.474 96.8 442.463 97.568L442.415 102H440.447ZM438.207 102.192C437.247 102.192 436.5 101.979 435.967 101.552C435.444 101.125 435.183 100.523 435.183 99.744C435.183 98.8907 435.466 98.2507 436.031 97.824C436.607 97.3867 437.412 97.168 438.447 97.168H440.479V98.736H439.183C438.49 98.736 438.01 98.8213 437.743 98.992C437.476 99.152 437.343 99.3813 437.343 99.68C437.343 99.9147 437.45 100.101 437.663 100.24C437.876 100.368 438.175 100.432 438.559 100.432C438.911 100.432 439.22 100.352 439.487 100.192C439.764 100.021 439.983 99.808 440.143 99.552C440.303 99.2853 440.383 99.0133 440.383 98.736H440.895C440.895 99.824 440.687 100.672 440.271 101.28C439.866 101.888 439.178 102.192 438.207 102.192ZM447.442 102.192C446.557 102.192 445.885 101.973 445.426 101.536C444.978 101.099 444.754 100.475 444.754 99.664V91.504H446.866V99.2C446.866 99.5413 446.941 99.8027 447.09 99.984C447.24 100.155 447.458 100.24 447.746 100.24C447.853 100.24 447.97 100.219 448.098 100.176C448.226 100.123 448.36 100.048 448.498 99.952L449.234 101.536C448.978 101.728 448.69 101.883 448.37 102C448.061 102.128 447.752 102.192 447.442 102.192ZM443.458 95.792V94H448.866V95.792H443.458ZM450.712 102V94H452.824V102H450.712ZM451.768 92.704C451.448 92.704 451.165 92.5867 450.92 92.352C450.675 92.1067 450.552 91.8187 450.552 91.488C450.552 91.1573 450.675 90.8747 450.92 90.64C451.165 90.3947 451.448 90.272 451.768 90.272C452.099 90.272 452.381 90.3947 452.616 90.64C452.861 90.8747 452.984 91.1573 452.984 91.488C452.984 91.8187 452.861 92.1067 452.616 92.352C452.381 92.5867 452.099 92.704 451.768 92.704ZM458.531 102.192C457.721 102.192 456.995 102.016 456.355 101.664C455.726 101.301 455.23 100.805 454.867 100.176C454.515 99.5467 454.339 98.8213 454.339 98C454.339 97.1787 454.515 96.4533 454.867 95.824C455.219 95.1947 455.71 94.704 456.339 94.352C456.969 93.9893 457.689 93.808 458.499 93.808C459.321 93.808 460.046 93.9893 460.675 94.352C461.305 94.704 461.795 95.1947 462.147 95.824C462.499 96.4533 462.675 97.1787 462.675 98C462.675 98.8213 462.499 99.5467 462.147 100.176C461.795 100.805 461.305 101.301 460.675 101.664C460.057 102.016 459.342 102.192 458.531 102.192ZM458.531 100.24C458.926 100.24 459.273 100.144 459.571 99.952C459.87 99.76 460.099 99.4987 460.259 99.168C460.43 98.8267 460.515 98.4373 460.515 98C460.515 97.5627 460.43 97.1787 460.259 96.848C460.089 96.5067 459.849 96.24 459.539 96.048C459.241 95.856 458.894 95.76 458.499 95.76C458.115 95.76 457.769 95.856 457.459 96.048C457.161 96.24 456.926 96.5067 456.755 96.848C456.585 97.1787 456.499 97.5627 456.499 98C456.499 98.4373 456.585 98.8267 456.755 99.168C456.926 99.4987 457.166 99.76 457.475 99.952C457.785 100.144 458.137 100.24 458.531 100.24ZM464.068 102V94H466.052L466.18 95.472V102H464.068ZM469.364 102V97.904H471.476V102H469.364ZM469.364 97.904C469.364 97.36 469.3 96.9387 469.172 96.64C469.055 96.3413 468.884 96.128 468.66 96C468.436 95.8613 468.175 95.792 467.876 95.792C467.332 95.7813 466.911 95.9467 466.612 96.288C466.324 96.6293 466.18 97.136 466.18 97.808H465.476C465.476 96.9547 465.599 96.2347 465.844 95.648C466.1 95.0507 466.452 94.5973 466.9 94.288C467.359 93.968 467.892 93.808 468.5 93.808C469.13 93.808 469.668 93.936 470.116 94.192C470.564 94.448 470.906 94.848 471.14 95.392C471.375 95.9253 471.487 96.6187 471.476 97.472V97.904H469.364ZM480.127 102.208C479.465 102.208 478.879 102.08 478.367 101.824C477.855 101.568 477.455 101.216 477.167 100.768C476.879 100.32 476.735 99.8027 476.735 99.216C476.735 98.8107 476.809 98.4373 476.959 98.096C477.108 97.7547 477.316 97.44 477.583 97.152C477.849 96.8533 478.148 96.592 478.479 96.368L480.591 94.912C480.761 94.7947 480.943 94.6613 481.135 94.512C481.337 94.3627 481.513 94.1867 481.663 93.984C481.823 93.7707 481.903 93.5307 481.903 93.264C481.903 92.9547 481.791 92.7147 481.567 92.544C481.343 92.3627 481.06 92.272 480.719 92.272C480.399 92.272 480.127 92.3627 479.903 92.544C479.689 92.7253 479.583 92.96 479.583 93.248C479.583 93.5253 479.668 93.7707 479.839 93.984C480.009 94.1867 480.207 94.4267 480.431 94.704L482.559 97.264L486.479 102H484.015L481.039 98.448L478.799 95.728C478.511 95.3547 478.271 95.0293 478.079 94.752C477.897 94.464 477.764 94.2027 477.679 93.968C477.593 93.7227 477.551 93.4773 477.551 93.232C477.551 92.72 477.684 92.2667 477.951 91.872C478.228 91.4773 478.596 91.168 479.055 90.944C479.524 90.7093 480.047 90.592 480.623 90.592C481.252 90.592 481.812 90.7093 482.303 90.944C482.793 91.168 483.177 91.4827 483.455 91.888C483.743 92.2933 483.887 92.768 483.887 93.312C483.887 93.7493 483.775 94.1547 483.551 94.528C483.327 94.8907 482.996 95.2587 482.559 95.632C482.132 96.0053 481.609 96.4053 480.991 96.832L479.855 97.616C479.684 97.7333 479.524 97.8667 479.375 98.016C479.236 98.1653 479.124 98.336 479.039 98.528C478.953 98.7093 478.911 98.9227 478.911 99.168C478.911 99.5307 479.033 99.8293 479.279 100.064C479.535 100.299 479.86 100.416 480.255 100.416C480.703 100.416 481.145 100.347 481.583 100.208C482.02 100.069 482.415 99.8613 482.767 99.584C483.129 99.3067 483.412 98.9653 483.615 98.56C483.817 98.1547 483.919 97.6907 483.919 97.168H485.887C485.887 98.1493 485.641 99.024 485.151 99.792C484.66 100.549 483.983 101.141 483.119 101.568C482.255 101.995 481.257 102.208 480.127 102.208ZM493.818 102V92.8H490.458V90.8H499.354V92.8H496.01V102H493.818ZM503.059 102.192C502.27 102.192 501.571 102.016 500.963 101.664C500.355 101.301 499.875 100.805 499.523 100.176C499.182 99.5467 499.011 98.8213 499.011 98C499.011 97.1787 499.187 96.4533 499.539 95.824C499.902 95.1947 500.393 94.704 501.011 94.352C501.641 93.9893 502.361 93.808 503.171 93.808C503.875 93.808 504.521 93.9947 505.107 94.368C505.705 94.7307 506.179 95.2693 506.531 95.984C506.894 96.688 507.075 97.5467 507.075 98.56H501.011L501.203 98.368C501.203 98.7627 501.299 99.1093 501.491 99.408C501.694 99.696 501.95 99.92 502.259 100.08C502.579 100.229 502.921 100.304 503.283 100.304C503.721 100.304 504.078 100.213 504.355 100.032C504.633 99.84 504.846 99.5947 504.995 99.296L506.883 100.032C506.659 100.48 506.366 100.869 506.003 101.2C505.651 101.52 505.23 101.765 504.739 101.936C504.249 102.107 503.689 102.192 503.059 102.192ZM501.315 97.184L501.123 96.992H504.979L504.803 97.184C504.803 96.8 504.713 96.496 504.531 96.272C504.35 96.0373 504.126 95.8667 503.859 95.76C503.603 95.6533 503.353 95.6 503.107 95.6C502.862 95.6 502.601 95.6533 502.323 95.76C502.046 95.8667 501.806 96.0373 501.603 96.272C501.411 96.496 501.315 96.8 501.315 97.184ZM512.159 102.192C511.327 102.192 510.585 102.016 509.935 101.664C509.284 101.301 508.777 100.805 508.415 100.176C508.052 99.536 507.871 98.8107 507.871 98C507.871 97.1787 508.052 96.4533 508.415 95.824C508.777 95.1947 509.279 94.704 509.919 94.352C510.559 93.9893 511.295 93.808 512.127 93.808C512.927 93.808 513.657 94.0053 514.319 94.4C514.98 94.7947 515.46 95.3653 515.759 96.112L513.775 96.816C513.625 96.5067 513.391 96.2613 513.071 96.08C512.761 95.888 512.415 95.792 512.031 95.792C511.636 95.792 511.289 95.888 510.991 96.08C510.692 96.2613 510.457 96.5173 510.287 96.848C510.116 97.1787 510.031 97.5627 510.031 98C510.031 98.4373 510.116 98.8213 510.287 99.152C510.457 99.472 510.697 99.728 511.007 99.92C511.316 100.112 511.668 100.208 512.063 100.208C512.447 100.208 512.793 100.107 513.103 99.904C513.423 99.7013 513.657 99.4347 513.807 99.104L515.807 99.808C515.497 100.565 515.012 101.152 514.351 101.568C513.7 101.984 512.969 102.192 512.159 102.192ZM517.053 102V90.8H519.165V102H517.053ZM522.365 102V97.904H524.477V102H522.365ZM522.365 97.904C522.365 97.36 522.301 96.9387 522.173 96.64C522.045 96.3413 521.869 96.128 521.645 96C521.421 95.8613 521.16 95.792 520.861 95.792C520.317 95.7813 519.896 95.9467 519.597 96.288C519.309 96.6293 519.165 97.136 519.165 97.808H518.461C518.461 96.9547 518.584 96.2347 518.829 95.648C519.085 95.0507 519.437 94.5973 519.885 94.288C520.344 93.968 520.877 93.808 521.485 93.808C522.125 93.808 522.664 93.936 523.101 94.192C523.549 94.448 523.89 94.848 524.125 95.392C524.36 95.9253 524.477 96.6187 524.477 97.472V97.904H522.365ZM526.162 102V94H528.146L528.274 95.472V102H526.162ZM531.458 102V97.904H533.57V102H531.458ZM531.458 97.904C531.458 97.36 531.394 96.9387 531.266 96.64C531.149 96.3413 530.978 96.128 530.754 96C530.53 95.8613 530.269 95.792 529.97 95.792C529.426 95.7813 529.005 95.9467 528.706 96.288C528.418 96.6293 528.274 97.136 528.274 97.808H527.57C527.57 96.9547 527.693 96.2347 527.938 95.648C528.194 95.0507 528.546 94.5973 528.994 94.288C529.453 93.968 529.986 93.808 530.594 93.808C531.223 93.808 531.762 93.936 532.21 94.192C532.658 94.448 532.999 94.848 533.234 95.392C533.469 95.9253 533.581 96.6187 533.57 97.472V97.904H531.458ZM539.016 102.192C538.205 102.192 537.48 102.016 536.84 101.664C536.21 101.301 535.714 100.805 535.352 100.176C535 99.5467 534.824 98.8213 534.824 98C534.824 97.1787 535 96.4533 535.352 95.824C535.704 95.1947 536.194 94.704 536.824 94.352C537.453 93.9893 538.173 93.808 538.984 93.808C539.805 93.808 540.53 93.9893 541.16 94.352C541.789 94.704 542.28 95.1947 542.632 95.824C542.984 96.4533 543.16 97.1787 543.16 98C543.16 98.8213 542.984 99.5467 542.632 100.176C542.28 100.805 541.789 101.301 541.16 101.664C540.541 102.016 539.826 102.192 539.016 102.192ZM539.016 100.24C539.41 100.24 539.757 100.144 540.056 99.952C540.354 99.76 540.584 99.4987 540.744 99.168C540.914 98.8267 541 98.4373 541 98C541 97.5627 540.914 97.1787 540.744 96.848C540.573 96.5067 540.333 96.24 540.024 96.048C539.725 95.856 539.378 95.76 538.984 95.76C538.6 95.76 538.253 95.856 537.944 96.048C537.645 96.24 537.41 96.5067 537.24 96.848C537.069 97.1787 536.984 97.5627 536.984 98C536.984 98.4373 537.069 98.8267 537.24 99.168C537.41 99.4987 537.65 99.76 537.96 99.952C538.269 100.144 538.621 100.24 539.016 100.24ZM544.553 102V90.8H546.665V102H544.553ZM552.25 102.192C551.439 102.192 550.714 102.016 550.074 101.664C549.445 101.301 548.949 100.805 548.586 100.176C548.234 99.5467 548.058 98.8213 548.058 98C548.058 97.1787 548.234 96.4533 548.586 95.824C548.938 95.1947 549.429 94.704 550.058 94.352C550.687 93.9893 551.407 93.808 552.218 93.808C553.039 93.808 553.765 93.9893 554.394 94.352C555.023 94.704 555.514 95.1947 555.866 95.824C556.218 96.4533 556.394 97.1787 556.394 98C556.394 98.8213 556.218 99.5467 555.866 100.176C555.514 100.805 555.023 101.301 554.394 101.664C553.775 102.016 553.061 102.192 552.25 102.192ZM552.25 100.24C552.645 100.24 552.991 100.144 553.29 99.952C553.589 99.76 553.818 99.4987 553.978 99.168C554.149 98.8267 554.234 98.4373 554.234 98C554.234 97.5627 554.149 97.1787 553.978 96.848C553.807 96.5067 553.567 96.24 553.258 96.048C552.959 95.856 552.613 95.76 552.218 95.76C551.834 95.76 551.487 95.856 551.178 96.048C550.879 96.24 550.645 96.5067 550.474 96.848C550.303 97.1787 550.218 97.5627 550.218 98C550.218 98.4373 550.303 98.8267 550.474 99.168C550.645 99.4987 550.885 99.76 551.194 99.952C551.503 100.144 551.855 100.24 552.25 100.24ZM561.387 105.408C560.779 105.408 560.24 105.365 559.771 105.28C559.302 105.195 558.907 105.083 558.587 104.944C558.267 104.805 558.006 104.667 557.803 104.528L558.635 102.832C558.784 102.917 558.982 103.013 559.227 103.12C559.472 103.237 559.766 103.333 560.107 103.408C560.448 103.493 560.843 103.536 561.291 103.536C561.718 103.536 562.091 103.451 562.411 103.28C562.742 103.12 562.998 102.864 563.179 102.512C563.371 102.171 563.467 101.733 563.467 101.2V94H565.579V101.136C565.579 102.032 565.408 102.8 565.067 103.44C564.726 104.091 564.24 104.581 563.611 104.912C562.992 105.243 562.251 105.408 561.387 105.408ZM560.971 101.776C560.235 101.776 559.595 101.616 559.051 101.296C558.518 100.976 558.102 100.528 557.803 99.952C557.504 99.376 557.355 98.6933 557.355 97.904C557.355 97.072 557.504 96.352 557.803 95.744C558.102 95.1253 558.518 94.6507 559.051 94.32C559.595 93.9787 560.235 93.808 560.971 93.808C561.611 93.808 562.166 93.9787 562.635 94.32C563.104 94.6507 563.467 95.1253 563.723 95.744C563.979 96.3627 564.107 97.0987 564.107 97.952C564.107 98.72 563.979 99.392 563.723 99.968C563.467 100.544 563.104 100.992 562.635 101.312C562.166 101.621 561.611 101.776 560.971 101.776ZM561.579 100C561.942 100 562.256 99.9093 562.523 99.728C562.8 99.536 563.014 99.28 563.163 98.96C563.312 98.6293 563.387 98.256 563.387 97.84C563.387 97.4133 563.307 97.04 563.147 96.72C562.998 96.4 562.784 96.1493 562.507 95.968C562.24 95.7867 561.926 95.696 561.563 95.696C561.19 95.696 560.859 95.7867 560.571 95.968C560.283 96.1493 560.059 96.4 559.899 96.72C559.739 97.04 559.654 97.4133 559.643 97.84C559.654 98.256 559.739 98.6293 559.899 98.96C560.059 99.28 560.283 99.536 560.571 99.728C560.87 99.9093 561.206 100 561.579 100ZM568.996 105.392C568.708 105.392 568.388 105.333 568.036 105.216C567.695 105.109 567.391 104.981 567.124 104.832L567.908 103.12C568.09 103.216 568.255 103.291 568.404 103.344C568.564 103.408 568.703 103.44 568.82 103.44C569.044 103.44 569.242 103.376 569.412 103.248C569.583 103.131 569.722 102.955 569.828 102.72L570.772 100.496L573.316 94H575.636L572.004 102.688C571.78 103.221 571.546 103.691 571.3 104.096C571.055 104.512 570.751 104.832 570.388 105.056C570.036 105.28 569.572 105.392 568.996 105.392ZM570.212 102L566.548 94H568.868L571.54 100.496L572.228 102H570.212Z" fill="#EDEDED"/>
<rect x="0.5" y="240.5" width="216" height="79" rx="11.5" fill="black" stroke="#323232"/>
<path d="M50.309 289.057L48.7485 288.331L40.3959 292.219C40.2717 292.276 40.1368 292.305 40.0002 292.305C39.8666 292.305 39.7346 292.277 39.613 292.221L31.2551 288.331L29.6946 289.057C29.5873 289.108 29.4967 289.188 29.4332 289.288C29.3697 289.389 29.3359 289.505 29.3359 289.624C29.3359 289.742 29.3697 289.858 29.4332 289.959C29.4967 290.059 29.5873 290.139 29.6946 290.19L39.7783 294.883C39.8482 294.916 39.9244 294.933 40.0015 294.933C40.0787 294.933 40.1549 294.916 40.2247 294.883L50.3085 290.19C50.4158 290.139 50.5065 290.059 50.57 289.959C50.6336 289.859 50.6674 289.742 50.6674 289.624C50.6675 289.505 50.6338 289.389 50.5704 289.289C50.5069 289.188 50.4163 289.108 50.309 289.057Z" fill="url(#paint11_linear_1061_2269)"/>
<path d="M37.8654 282.667C37.7239 282.667 37.5883 282.723 37.4882 282.823C37.3882 282.923 37.332 283.059 37.332 283.2C37.332 283.342 37.3882 283.477 37.4882 283.577C37.5883 283.677 37.7239 283.734 37.8654 283.734H42.132C42.2735 283.734 42.4091 283.677 42.5092 283.577C42.6092 283.477 42.6654 283.342 42.6654 283.2C42.6654 283.059 42.6092 282.923 42.5092 282.823C42.4091 282.723 42.2735 282.667 42.132 282.667H37.8654Z" fill="url(#paint12_linear_1061_2269)"/>
<path d="M43.7323 281.067C43.7323 280.925 43.6761 280.789 43.5761 280.689C43.4761 280.589 43.3404 280.533 43.199 280.533H36.799C36.6575 280.533 36.5219 280.589 36.4218 280.689C36.3218 280.789 36.2656 280.925 36.2656 281.067C36.2656 281.208 36.3218 281.344 36.4218 281.444C36.5219 281.544 36.6575 281.6 36.799 281.6H43.199C43.3404 281.6 43.4761 281.544 43.5761 281.444C43.6761 281.344 43.7323 281.208 43.7323 281.067Z" fill="url(#paint13_linear_1061_2269)"/>
<path d="M50.3096 285.316L48.7528 284.599L40.3928 288.448C40.27 288.505 40.1363 288.534 40.0008 288.534C39.8654 288.534 39.7316 288.505 39.6088 288.448L31.2499 284.599L29.6931 285.316C29.5864 285.366 29.4961 285.445 29.4328 285.544C29.3696 285.644 29.3359 285.759 29.3359 285.876C29.3359 285.994 29.3696 286.109 29.4328 286.209C29.4961 286.308 29.5864 286.387 29.6931 286.436L39.7779 291.084C39.8479 291.116 39.924 291.133 40.0011 291.133C40.0782 291.133 40.1543 291.116 40.2243 291.084L50.3091 286.438C50.4161 286.388 50.5067 286.309 50.5703 286.21C50.6338 286.11 50.6676 285.995 50.6677 285.877C50.6677 285.759 50.634 285.644 50.5706 285.545C50.5072 285.445 50.4166 285.366 50.3096 285.316Z" fill="url(#paint14_linear_1061_2269)"/>
<path d="M40.0003 272.534C40.5894 272.534 41.0669 272.056 41.0669 271.467C41.0669 270.878 40.5894 270.4 40.0003 270.4C39.4112 270.4 38.9336 270.878 38.9336 271.467C38.9336 272.056 39.4112 272.534 40.0003 272.534Z" fill="url(#paint15_linear_1061_2269)"/>
<path d="M29.6989 282.71L39.7789 287.35C39.8488 287.383 39.9249 287.399 40.0018 287.399C40.0788 287.399 40.1548 287.383 40.2248 287.35L50.3048 282.71C50.4116 282.661 50.5021 282.582 50.5655 282.483C50.629 282.383 50.6627 282.268 50.6627 282.15C50.6627 282.033 50.629 281.917 50.5655 281.818C50.5021 281.719 50.4116 281.64 50.3048 281.59L43.8402 278.613C43.7713 278.843 43.7354 279.081 43.7336 279.321V279.565C44.0551 279.677 44.3321 279.889 44.5239 280.171C44.7156 280.452 44.812 280.788 44.7989 281.128C44.7858 281.468 44.6638 281.796 44.4509 282.061C44.238 282.327 43.9454 282.518 43.6162 282.605C43.7256 282.872 43.7592 283.163 43.7133 283.448C43.637 283.835 43.4266 284.183 43.1193 284.43C42.8119 284.677 42.4272 284.808 42.0328 284.8H37.9688C37.5742 284.808 37.1894 284.677 36.882 284.43C36.5745 284.182 36.3641 283.835 36.2877 283.447C36.2422 283.163 36.276 282.871 36.3853 282.605C36.0561 282.518 35.7635 282.327 35.5506 282.061C35.3377 281.796 35.2157 281.468 35.2026 281.128C35.1895 280.788 35.2859 280.452 35.4777 280.171C35.6694 279.889 35.9464 279.677 36.268 279.565V279.413C36.267 279.144 36.2291 278.877 36.1554 278.618L29.6989 281.589C29.5917 281.639 29.5009 281.718 29.4373 281.817C29.3737 281.916 29.3398 282.032 29.3398 282.15C29.3398 282.268 29.3737 282.383 29.4373 282.483C29.5009 282.582 29.5917 282.661 29.6989 282.71Z" fill="url(#paint16_linear_1061_2269)"/>
<path d="M33.6016 271.467C33.5995 272.419 33.8111 273.36 34.2209 274.22C34.6306 275.08 35.228 275.837 35.969 276.436C36.4048 276.798 36.7536 277.254 36.99 277.769C37.2264 278.285 37.3442 278.846 37.3349 279.413V279.467H42.6682V279.321C42.6764 278.756 42.8089 278.2 43.0564 277.692C43.3039 277.184 43.6603 276.736 44.1002 276.382C44.9274 275.692 45.5671 274.805 45.9601 273.802C46.3532 272.799 46.4868 271.714 46.3487 270.646C46.2106 269.578 45.8052 268.562 45.1701 267.692C44.5349 266.822 43.6906 266.127 42.7152 265.67C41.7399 265.214 40.665 265.01 39.5903 265.08C38.5156 265.149 37.4757 265.488 36.5669 266.066C35.6582 266.644 34.91 267.442 34.3916 268.386C33.8733 269.33 33.6015 270.39 33.6016 271.467ZM35.8997 270.104C35.9647 269.907 36.0442 269.715 36.1376 269.529L36.1136 269.469C36.0493 269.304 36.0288 269.126 36.0539 268.951C36.0791 268.776 36.149 268.611 36.257 268.471C36.4734 268.19 36.7253 267.938 37.0064 267.722C37.146 267.614 37.3113 267.544 37.4861 267.519C37.6609 267.494 37.8393 267.514 38.0037 267.579L38.064 267.603C38.2497 267.509 38.442 267.43 38.6394 267.365L38.6682 267.307C38.7392 267.145 38.8509 267.004 38.9924 266.898C39.1339 266.793 39.3004 266.725 39.4757 266.703C39.8267 266.659 40.1818 266.659 40.5328 266.703C40.7076 266.726 40.8736 266.793 41.0146 266.899C41.1557 267.005 41.2671 267.145 41.3381 267.307L41.3637 267.367C41.5612 267.432 41.7535 267.512 41.9392 267.605L41.9994 267.581C42.1639 267.517 42.3422 267.496 42.517 267.521C42.6919 267.547 42.8572 267.617 42.9968 267.725C43.2779 267.941 43.5297 268.193 43.7461 268.474C43.8541 268.614 43.9241 268.779 43.9492 268.954C43.9744 269.129 43.9538 269.307 43.8896 269.471L43.8656 269.532C43.959 269.717 44.0385 269.91 44.1034 270.107L44.1642 270.133C44.326 270.204 44.4667 270.316 44.5725 270.457C44.6783 270.599 44.7457 270.765 44.768 270.941C44.8128 271.292 44.8128 271.647 44.768 271.998C44.7455 272.173 44.6782 272.34 44.5724 272.481C44.4666 272.623 44.326 272.735 44.1642 272.806L44.1034 272.831C44.0385 273.029 43.959 273.221 43.8656 273.407L43.8896 273.467C43.9538 273.632 43.9744 273.81 43.9492 273.985C43.9241 274.159 43.8541 274.325 43.7461 274.464C43.5297 274.746 43.2779 274.997 42.9968 275.214C42.8571 275.322 42.6918 275.392 42.517 275.417C42.3422 275.442 42.1639 275.422 41.9994 275.357L41.9392 275.333C41.7535 275.427 41.5612 275.506 41.3637 275.571L41.3376 275.632C41.2666 275.794 41.1549 275.934 41.0134 276.04C40.8719 276.146 40.7054 276.213 40.5301 276.236C40.1792 276.28 39.824 276.28 39.473 276.236C39.2977 276.213 39.1312 276.146 38.9897 276.04C38.8481 275.934 38.7363 275.794 38.665 275.632L38.6394 275.571C38.442 275.506 38.2497 275.427 38.064 275.333L38.0037 275.357C37.8393 275.422 37.6609 275.442 37.4861 275.417C37.3113 275.392 37.146 275.322 37.0064 275.214C36.7253 274.997 36.4734 274.746 36.257 274.464C36.149 274.325 36.0791 274.159 36.0539 273.985C36.0288 273.81 36.0493 273.632 36.1136 273.467L36.1376 273.407C36.0442 273.221 35.9647 273.029 35.8997 272.831L35.8389 272.805C35.6771 272.734 35.5365 272.623 35.4307 272.481C35.3249 272.34 35.2575 272.173 35.2352 271.998C35.1904 271.647 35.1904 271.292 35.2352 270.941C35.2574 270.765 35.325 270.597 35.4313 270.455C35.5376 270.313 35.679 270.201 35.8416 270.13L35.8997 270.104Z" fill="url(#paint17_linear_1061_2269)"/>
<path d="M36.2681 271.466C36.2682 271.598 36.2768 271.729 36.2937 271.859L36.5497 271.947C36.6241 271.979 36.6902 272.027 36.743 272.088C36.7959 272.15 36.8341 272.222 36.8548 272.3C36.9285 272.581 37.0399 272.85 37.186 273.1C37.2266 273.17 37.2508 273.249 37.2567 273.329C37.2626 273.41 37.2501 273.491 37.2201 273.566L37.1039 273.858C37.1955 273.934 37.2816 274.017 37.3615 274.105C37.4544 274.198 37.5531 274.285 37.6569 274.365L37.9007 274.247C37.9634 274.221 38.0304 274.209 38.098 274.209C38.1917 274.209 38.2836 274.234 38.3647 274.281C38.6151 274.427 38.8842 274.538 39.1647 274.612C39.2429 274.633 39.3154 274.671 39.3766 274.724C39.4379 274.777 39.4863 274.843 39.5183 274.917L39.642 275.206C39.7615 275.195 39.8816 275.193 40.0015 275.2C40.1329 275.2 40.2642 275.191 40.3945 275.174L40.482 274.918C40.5139 274.844 40.5624 274.778 40.6236 274.725C40.6849 274.672 40.7574 274.634 40.8356 274.613C41.116 274.539 41.3851 274.428 41.6356 274.282C41.7055 274.241 41.7838 274.217 41.8645 274.211C41.9451 274.205 42.0261 274.218 42.1012 274.248L42.3929 274.364C42.4691 274.272 42.5518 274.186 42.6404 274.106C42.7331 274.013 42.8198 273.915 42.9001 273.811L42.7817 273.567C42.7517 273.492 42.7392 273.411 42.7451 273.33C42.751 273.25 42.7752 273.171 42.8159 273.101C42.9619 272.851 43.0733 272.582 43.1471 272.301C43.1677 272.223 43.206 272.151 43.2588 272.09C43.3117 272.028 43.3778 271.98 43.4521 271.948L43.7113 271.836C43.7265 271.714 43.7343 271.59 43.7348 271.466C43.7347 271.335 43.7261 271.204 43.7092 271.073L43.4532 270.986C43.3788 270.954 43.3127 270.905 43.2599 270.844C43.207 270.783 43.1688 270.71 43.1481 270.632C43.0744 270.352 42.963 270.083 42.8169 269.832C42.7763 269.762 42.7521 269.684 42.7462 269.603C42.7403 269.523 42.7528 269.442 42.7828 269.367L42.8991 269.075C42.8074 268.999 42.7213 268.916 42.6415 268.827C42.5485 268.735 42.4498 268.648 42.346 268.568L42.1023 268.686C42.0271 268.716 41.9462 268.729 41.8655 268.723C41.7849 268.717 41.7066 268.693 41.6367 268.652C41.3862 268.506 41.1171 268.394 40.8367 268.321C40.7584 268.3 40.6859 268.262 40.6247 268.209C40.5634 268.156 40.515 268.09 40.4831 268.016L40.3593 267.727C40.2404 267.738 40.1207 267.74 40.0015 267.733C39.87 267.733 39.7387 267.742 39.6084 267.759L39.5209 268.015C39.489 268.089 39.4405 268.155 39.3793 268.208C39.318 268.261 39.2455 268.299 39.1673 268.32C38.8869 268.393 38.6178 268.505 38.3673 268.651C38.2974 268.691 38.2191 268.716 38.1385 268.722C38.0578 268.727 37.9768 268.715 37.9017 268.685L37.61 268.569C37.5338 268.66 37.4511 268.746 37.3625 268.826C37.2698 268.919 37.1831 269.018 37.1028 269.122L37.2212 269.365C37.2512 269.441 37.2637 269.522 37.2578 269.602C37.2519 269.683 37.2277 269.761 37.1871 269.831C37.041 270.082 36.9296 270.351 36.8559 270.631C36.8352 270.709 36.7969 270.782 36.7441 270.843C36.6912 270.904 36.6251 270.953 36.5508 270.985L36.2617 271.108C36.2727 271.227 36.2748 271.347 36.2681 271.466ZM40.0015 269.333C40.4234 269.333 40.8358 269.458 41.1867 269.692C41.5375 269.927 41.8109 270.26 41.9724 270.65C42.1339 271.04 42.1761 271.469 42.0938 271.882C42.0115 272.296 41.8083 272.676 41.5099 272.975C41.2116 273.273 40.8315 273.476 40.4176 273.559C40.0038 273.641 39.5749 273.599 39.1851 273.437C38.7952 273.276 38.4621 273.002 38.2277 272.652C37.9932 272.301 37.8681 271.888 37.8681 271.466C37.8681 270.901 38.0929 270.358 38.493 269.958C38.893 269.558 39.4357 269.333 40.0015 269.333Z" fill="url(#paint18_linear_1061_2269)"/>
<path d="M67.696 286V276.24H64.192V274.8H72.784V276.24H69.28V286H67.696ZM76.5451 286.192C75.7665 286.192 75.0785 286.016 74.4811 285.664C73.8838 285.301 73.4145 284.805 73.0731 284.176C72.7318 283.547 72.5611 282.821 72.5611 282C72.5611 281.179 72.7318 280.453 73.0731 279.824C73.4145 279.195 73.8838 278.704 74.4811 278.352C75.0891 277.989 75.7825 277.808 76.5611 277.808C77.2971 277.808 77.9425 277.995 78.4971 278.368C79.0518 278.731 79.4838 279.253 79.7931 279.936C80.1131 280.608 80.2731 281.403 80.2731 282.32H73.8091L74.0971 282.08C74.0971 282.645 74.2091 283.136 74.4331 283.552C74.6571 283.968 74.9611 284.288 75.3451 284.512C75.7291 284.725 76.1665 284.832 76.6571 284.832C77.1905 284.832 77.6331 284.709 77.9851 284.464C78.3478 284.208 78.6305 283.888 78.8331 283.504L80.1451 284.112C79.9318 284.528 79.6545 284.896 79.3131 285.216C78.9718 285.525 78.5665 285.765 78.0971 285.936C77.6385 286.107 77.1211 286.192 76.5451 286.192ZM74.1931 281.36L73.8891 281.12H78.9451L78.6571 281.36C78.6571 280.891 78.5611 280.491 78.3691 280.16C78.1771 279.819 77.9211 279.563 77.6011 279.392C77.2811 279.211 76.9238 279.12 76.5291 279.12C76.1451 279.12 75.7718 279.211 75.4091 279.392C75.0571 279.563 74.7638 279.813 74.5291 280.144C74.3051 280.475 74.1931 280.88 74.1931 281.36ZM85.4227 286.192C84.6228 286.192 83.9134 286.016 83.2948 285.664C82.6761 285.301 82.1908 284.805 81.8388 284.176C81.4974 283.547 81.3268 282.821 81.3268 282C81.3268 281.179 81.4974 280.453 81.8388 279.824C82.1908 279.195 82.6708 278.704 83.2788 278.352C83.8974 277.989 84.6014 277.808 85.3908 277.808C86.1694 277.808 86.8681 277.989 87.4868 278.352C88.1161 278.715 88.5854 279.232 88.8948 279.904L87.5188 280.48C87.3161 280.085 87.0228 279.776 86.6388 279.552C86.2654 279.328 85.8334 279.216 85.3428 279.216C84.8628 279.216 84.4361 279.333 84.0628 279.568C83.6894 279.803 83.3961 280.133 83.1828 280.56C82.9694 280.976 82.8628 281.456 82.8628 282C82.8628 282.544 82.9694 283.024 83.1828 283.44C83.3961 283.856 83.6948 284.187 84.0788 284.432C84.4628 284.667 84.8948 284.784 85.3748 284.784C85.8654 284.784 86.3028 284.661 86.6868 284.416C87.0708 284.16 87.3588 283.819 87.5508 283.392L88.9427 283.952C88.6334 284.656 88.1641 285.205 87.5348 285.6C86.9161 285.995 86.2121 286.192 85.4227 286.192ZM90.4626 286V274.8H91.9666V286H90.4626ZM95.9986 286V281.904H97.5026V286H95.9986ZM95.9986 281.904C95.9986 281.179 95.9133 280.629 95.7426 280.256C95.572 279.872 95.3373 279.605 95.0386 279.456C94.7506 279.307 94.42 279.227 94.0466 279.216C93.3853 279.216 92.8733 279.445 92.5106 279.904C92.148 280.363 91.9666 281.008 91.9666 281.84H91.3266C91.3266 280.997 91.4493 280.277 91.6946 279.68C91.9506 279.072 92.308 278.608 92.7666 278.288C93.236 277.968 93.7906 277.808 94.4306 277.808C95.06 277.808 95.604 277.936 96.0626 278.192C96.5213 278.448 96.8786 278.848 97.1346 279.392C97.3906 279.925 97.5133 280.629 97.5026 281.504V281.904H95.9986ZM99.4154 286V278H100.839L100.935 279.472V286H99.4154ZM104.951 286V281.904H106.471V286H104.951ZM104.951 281.904C104.951 281.179 104.866 280.629 104.695 280.256C104.535 279.872 104.306 279.605 104.007 279.456C103.719 279.307 103.383 279.227 102.999 279.216C102.349 279.216 101.842 279.445 101.479 279.904C101.117 280.363 100.935 281.008 100.935 281.84H100.279C100.279 280.997 100.402 280.277 100.647 279.68C100.903 279.072 101.261 278.608 101.719 278.288C102.189 277.968 102.743 277.808 103.383 277.808C104.013 277.808 104.557 277.936 105.015 278.192C105.485 278.448 105.842 278.848 106.087 279.392C106.343 279.925 106.471 280.629 106.471 281.504V281.904H104.951ZM112 286.192C111.2 286.192 110.496 286.016 109.888 285.664C109.28 285.301 108.8 284.805 108.448 284.176C108.107 283.547 107.936 282.821 107.936 282C107.936 281.179 108.107 280.453 108.448 279.824C108.789 279.195 109.264 278.704 109.872 278.352C110.48 277.989 111.179 277.808 111.968 277.808C112.757 277.808 113.456 277.989 114.064 278.352C114.672 278.704 115.147 279.195 115.488 279.824C115.829 280.453 116 281.179 116 282C116 282.821 115.829 283.547 115.488 284.176C115.147 284.805 114.672 285.301 114.064 285.664C113.467 286.016 112.779 286.192 112 286.192ZM112 284.8C112.48 284.8 112.907 284.683 113.28 284.448C113.653 284.203 113.941 283.872 114.144 283.456C114.357 283.04 114.464 282.555 114.464 282C114.464 281.445 114.357 280.96 114.144 280.544C113.941 280.128 113.648 279.803 113.264 279.568C112.88 279.323 112.448 279.2 111.968 279.2C111.477 279.2 111.045 279.323 110.672 279.568C110.299 279.803 110.005 280.128 109.792 280.544C109.579 280.96 109.472 281.445 109.472 282C109.472 282.555 109.579 283.04 109.792 283.456C110.005 283.872 110.304 284.203 110.688 284.448C111.072 284.683 111.509 284.8 112 284.8ZM117.665 286V274.8H119.185V286H117.665ZM124.906 286.192C124.106 286.192 123.402 286.016 122.794 285.664C122.186 285.301 121.706 284.805 121.354 284.176C121.013 283.547 120.842 282.821 120.842 282C120.842 281.179 121.013 280.453 121.354 279.824C121.696 279.195 122.17 278.704 122.778 278.352C123.386 277.989 124.085 277.808 124.874 277.808C125.664 277.808 126.362 277.989 126.97 278.352C127.578 278.704 128.053 279.195 128.394 279.824C128.736 280.453 128.906 281.179 128.906 282C128.906 282.821 128.736 283.547 128.394 284.176C128.053 284.805 127.578 285.301 126.97 285.664C126.373 286.016 125.685 286.192 124.906 286.192ZM124.906 284.8C125.386 284.8 125.813 284.683 126.186 284.448C126.56 284.203 126.848 283.872 127.05 283.456C127.264 283.04 127.37 282.555 127.37 282C127.37 281.445 127.264 280.96 127.05 280.544C126.848 280.128 126.554 279.803 126.17 279.568C125.786 279.323 125.354 279.2 124.874 279.2C124.384 279.2 123.952 279.323 123.578 279.568C123.205 279.803 122.912 280.128 122.698 280.544C122.485 280.96 122.378 281.445 122.378 282C122.378 282.555 122.485 283.04 122.698 283.456C122.912 283.872 123.21 284.203 123.594 284.448C123.978 284.683 124.416 284.8 124.906 284.8ZM133.884 289.408C133.35 289.408 132.865 289.355 132.428 289.248C131.99 289.152 131.622 289.04 131.324 288.912C131.025 288.784 130.801 288.672 130.652 288.576L131.228 287.344C131.366 287.429 131.564 287.525 131.82 287.632C132.076 287.749 132.374 287.845 132.716 287.92C133.057 288.005 133.436 288.048 133.852 288.048C134.342 288.048 134.78 287.947 135.164 287.744C135.548 287.552 135.846 287.248 136.06 286.832C136.284 286.416 136.396 285.883 136.396 285.232V278H137.916V285.2C137.916 286.117 137.74 286.885 137.388 287.504C137.046 288.133 136.572 288.608 135.964 288.928C135.366 289.248 134.673 289.408 133.884 289.408ZM133.74 285.888C133.014 285.888 132.38 285.723 131.836 285.392C131.302 285.051 130.881 284.581 130.572 283.984C130.273 283.376 130.124 282.677 130.124 281.888C130.124 281.067 130.273 280.352 130.572 279.744C130.881 279.136 131.302 278.661 131.836 278.32C132.38 277.979 133.014 277.808 133.74 277.808C134.401 277.808 134.977 277.979 135.468 278.32C135.969 278.661 136.353 279.141 136.62 279.76C136.897 280.368 137.036 281.083 137.036 281.904C137.036 282.693 136.897 283.392 136.62 284C136.353 284.597 135.969 285.061 135.468 285.392C134.977 285.723 134.401 285.888 133.74 285.888ZM134.124 284.608C134.572 284.608 134.961 284.491 135.292 284.256C135.622 284.011 135.884 283.685 136.076 283.28C136.268 282.864 136.364 282.389 136.364 281.856C136.364 281.323 136.268 280.853 136.076 280.448C135.884 280.043 135.617 279.728 135.276 279.504C134.945 279.269 134.556 279.152 134.108 279.152C133.638 279.152 133.222 279.269 132.86 279.504C132.508 279.728 132.23 280.043 132.028 280.448C131.825 280.853 131.724 281.323 131.724 281.856C131.724 282.389 131.825 282.864 132.028 283.28C132.241 283.685 132.524 284.011 132.876 284.256C133.238 284.491 133.654 284.608 134.124 284.608ZM141.001 289.392C140.766 289.392 140.505 289.349 140.217 289.264C139.939 289.179 139.651 289.067 139.353 288.928L139.913 287.68C140.147 287.787 140.35 287.867 140.521 287.92C140.702 287.973 140.846 288 140.953 288C141.219 288 141.443 287.925 141.625 287.776C141.817 287.627 141.971 287.419 142.089 287.152L143.017 284.96L145.865 278H147.497L143.705 286.992C143.502 287.483 143.289 287.909 143.065 288.272C142.841 288.635 142.563 288.912 142.233 289.104C141.913 289.296 141.502 289.392 141.001 289.392ZM142.601 286L139.097 278H140.713L143.609 284.944L144.073 286H142.601ZM156.556 286.192C155.958 286.192 155.414 286.123 154.924 285.984C154.444 285.845 154.022 285.659 153.66 285.424C153.308 285.179 153.014 284.907 152.78 284.608C152.545 284.309 152.38 283.995 152.284 283.664L153.804 283.168C153.964 283.605 154.268 283.984 154.716 284.304C155.164 284.624 155.713 284.789 156.364 284.8C157.153 284.8 157.772 284.645 158.22 284.336C158.678 284.016 158.908 283.595 158.908 283.072C158.908 282.592 158.71 282.203 158.316 281.904C157.921 281.595 157.398 281.36 156.748 281.2L155.452 280.864C154.94 280.725 154.47 280.528 154.044 280.272C153.628 280.016 153.297 279.691 153.052 279.296C152.806 278.901 152.684 278.427 152.684 277.872C152.684 276.848 153.014 276.048 153.676 275.472C154.348 274.896 155.313 274.608 156.572 274.608C157.297 274.608 157.926 274.725 158.46 274.96C158.993 275.184 159.43 275.483 159.772 275.856C160.124 276.229 160.374 276.64 160.524 277.088L159.004 277.6C158.822 277.12 158.513 276.736 158.076 276.448C157.638 276.149 157.1 276 156.46 276C155.788 276 155.254 276.16 154.86 276.48C154.476 276.8 154.284 277.237 154.284 277.792C154.284 278.261 154.433 278.624 154.732 278.88C155.041 279.125 155.452 279.312 155.964 279.44L157.26 279.76C158.305 280.016 159.11 280.443 159.676 281.04C160.252 281.627 160.54 282.272 160.54 282.976C160.54 283.584 160.385 284.133 160.076 284.624C159.777 285.104 159.329 285.488 158.732 285.776C158.145 286.053 157.42 286.192 156.556 286.192ZM165.457 286.192C164.657 286.192 164.038 285.989 163.601 285.584C163.163 285.168 162.945 284.576 162.945 283.808V275.504H164.465V283.584C164.465 283.979 164.561 284.283 164.753 284.496C164.955 284.699 165.243 284.8 165.617 284.8C165.723 284.8 165.841 284.779 165.969 284.736C166.097 284.693 166.251 284.608 166.433 284.48L167.009 285.664C166.731 285.845 166.465 285.979 166.209 286.064C165.963 286.149 165.713 286.192 165.457 286.192ZM161.585 279.312V278H166.737V279.312H161.585ZM173.359 286L173.295 284.608V281.824C173.295 281.237 173.225 280.747 173.087 280.352C172.959 279.957 172.756 279.659 172.479 279.456C172.212 279.253 171.855 279.152 171.407 279.152C170.991 279.152 170.628 279.237 170.319 279.408C170.02 279.579 169.769 279.845 169.567 280.208L168.223 279.696C168.415 279.333 168.655 279.013 168.943 278.736C169.231 278.448 169.577 278.224 169.983 278.064C170.388 277.893 170.863 277.808 171.407 277.808C172.164 277.808 172.793 277.957 173.295 278.256C173.796 278.555 174.169 278.987 174.415 279.552C174.671 280.117 174.793 280.816 174.783 281.648L174.767 286H173.359ZM171.007 286.192C170.057 286.192 169.316 285.979 168.783 285.552C168.26 285.115 167.999 284.512 167.999 283.744C167.999 282.923 168.271 282.299 168.815 281.872C169.369 281.435 170.137 281.216 171.119 281.216H173.343V282.416H171.535C170.799 282.416 170.281 282.533 169.983 282.768C169.684 282.992 169.535 283.307 169.535 283.712C169.535 284.085 169.673 284.379 169.951 284.592C170.239 284.795 170.633 284.896 171.135 284.896C171.572 284.896 171.951 284.805 172.271 284.624C172.591 284.432 172.841 284.165 173.023 283.824C173.204 283.483 173.295 283.093 173.295 282.656H173.823C173.823 283.744 173.588 284.608 173.119 285.248C172.66 285.877 171.956 286.192 171.007 286.192ZM180.345 286.192C179.545 286.192 178.835 286.016 178.217 285.664C177.598 285.301 177.113 284.805 176.761 284.176C176.419 283.547 176.249 282.821 176.249 282C176.249 281.179 176.419 280.453 176.761 279.824C177.113 279.195 177.593 278.704 178.201 278.352C178.819 277.989 179.523 277.808 180.313 277.808C181.091 277.808 181.79 277.989 182.409 278.352C183.038 278.715 183.507 279.232 183.817 279.904L182.441 280.48C182.238 280.085 181.945 279.776 181.561 279.552C181.187 279.328 180.755 279.216 180.265 279.216C179.785 279.216 179.358 279.333 178.985 279.568C178.611 279.803 178.318 280.133 178.105 280.56C177.891 280.976 177.785 281.456 177.785 282C177.785 282.544 177.891 283.024 178.105 283.44C178.318 283.856 178.617 284.187 179.001 284.432C179.385 284.667 179.817 284.784 180.297 284.784C180.787 284.784 181.225 284.661 181.609 284.416C181.993 284.16 182.281 283.819 182.473 283.392L183.865 283.952C183.555 284.656 183.086 285.205 182.457 285.6C181.838 285.995 181.134 286.192 180.345 286.192ZM186.841 283.584L185.897 282.544L190.105 278H191.961L186.841 283.584ZM185.368 286V274.8H186.889V286H185.368ZM190.441 286L187.497 281.616L188.489 280.56L192.265 286H190.441Z" fill="#EDEDED"/>
<rect x="745.5" y="240.5" width="226" height="79" rx="11.5" fill="black" stroke="#323232"/>
<path d="M778.438 287.574V289.823L775.319 291.556C774.89 291.209 774.344 291 773.75 291C772.372 291 771.25 292.122 771.25 293.5C771.25 294.878 772.372 296 773.75 296C775.128 296 776.25 294.878 776.25 293.5C776.25 293.396 776.243 293.295 776.231 293.194L779.83 291.194C780.128 291.029 780.312 290.715 780.312 290.375V286.906L779.866 287.174C779.434 287.433 778.941 287.571 778.438 287.574Z" fill="url(#paint19_linear_1061_2269)"/>
<path d="M785.938 291.183V289.625H784.062V291.183C783.147 291.555 782.5 292.453 782.5 293.5C782.5 294.878 783.622 296 785 296C786.378 296 787.5 294.878 787.5 293.5C787.5 292.453 786.853 291.555 785.938 291.183Z" fill="url(#paint20_linear_1061_2269)"/>
<path d="M796.25 291C795.656 291 795.11 291.209 794.681 291.556L791.562 289.823V287.574C791.059 287.571 790.566 287.433 790.134 287.174L789.688 286.906V290.375C789.688 290.715 789.872 291.029 790.17 291.194L793.769 293.194C793.757 293.295 793.75 293.396 793.75 293.5C793.75 294.878 794.872 296 796.25 296C797.628 296 798.75 294.878 798.75 293.5C798.75 292.122 797.628 291 796.25 291Z" fill="url(#paint21_linear_1061_2269)"/>
<path d="M792.244 285.425L794.55 283.119C794.854 282.814 794.912 282.342 794.691 281.973L793.834 280.545C794.125 279.997 794.363 279.419 794.548 278.82L796.165 278.415C796.582 278.311 796.875 277.936 796.875 277.506V274.244C796.875 273.814 796.582 273.439 796.165 273.335L794.548 272.93C794.363 272.331 794.125 271.753 793.834 271.205L794.691 269.777C794.912 269.408 794.854 268.936 794.55 268.631L792.244 266.325C791.939 266.021 791.467 265.963 791.098 266.184L789.67 267.041C789.122 266.75 788.544 266.512 787.945 266.327L787.541 264.71C787.436 264.293 787.061 264 786.631 264H783.369C782.939 264 782.564 264.293 782.46 264.71L782.055 266.327C781.456 266.511 780.878 266.75 780.33 267.041L778.902 266.184C778.533 265.963 778.061 266.021 777.756 266.325L775.45 268.631C775.146 268.936 775.088 269.408 775.309 269.777L776.166 271.205C775.875 271.753 775.637 272.331 775.452 272.93L773.835 273.335C773.418 273.439 773.125 273.814 773.125 274.244V277.506C773.125 277.936 773.418 278.311 773.835 278.415L775.452 278.82C775.637 279.419 775.875 279.997 776.166 280.545L775.309 281.973C775.088 282.342 775.146 282.814 775.45 283.119L777.756 285.425C778.061 285.729 778.533 285.787 778.902 285.566L780.33 284.709C780.878 285 781.456 285.239 782.055 285.423L782.459 287.04C782.564 287.457 782.939 287.75 783.369 287.75H786.631C787.061 287.75 787.436 287.457 787.54 287.04L787.945 285.423C788.544 285.239 789.122 285 789.67 284.709L791.098 285.566C791.467 285.787 791.939 285.729 792.244 285.425ZM785 280.25C782.584 280.25 780.625 278.291 780.625 275.875C780.625 273.459 782.584 271.5 785 271.5C787.416 271.5 789.375 273.459 789.375 275.875C789.375 278.291 787.416 280.25 785 280.25Z" fill="url(#paint22_linear_1061_2269)"/>
<path d="M814.04 286.192C813.443 286.192 812.899 286.123 812.408 285.984C811.928 285.845 811.507 285.659 811.144 285.424C810.792 285.179 810.499 284.907 810.264 284.608C810.029 284.309 809.864 283.995 809.768 283.664L811.288 283.168C811.448 283.605 811.752 283.984 812.2 284.304C812.648 284.624 813.197 284.789 813.848 284.8C814.637 284.8 815.256 284.645 815.704 284.336C816.163 284.016 816.392 283.595 816.392 283.072C816.392 282.592 816.195 282.203 815.8 281.904C815.405 281.595 814.883 281.36 814.232 281.2L812.936 280.864C812.424 280.725 811.955 280.528 811.528 280.272C811.112 280.016 810.781 279.691 810.536 279.296C810.291 278.901 810.168 278.427 810.168 277.872C810.168 276.848 810.499 276.048 811.16 275.472C811.832 274.896 812.797 274.608 814.056 274.608C814.781 274.608 815.411 274.725 815.944 274.96C816.477 275.184 816.915 275.483 817.256 275.856C817.608 276.229 817.859 276.64 818.008 277.088L816.488 277.6C816.307 277.12 815.997 276.736 815.56 276.448C815.123 276.149 814.584 276 813.944 276C813.272 276 812.739 276.16 812.344 276.48C811.96 276.8 811.768 277.237 811.768 277.792C811.768 278.261 811.917 278.624 812.216 278.88C812.525 279.125 812.936 279.312 813.448 279.44L814.744 279.76C815.789 280.016 816.595 280.443 817.16 281.04C817.736 281.627 818.024 282.272 818.024 282.976C818.024 283.584 817.869 284.133 817.56 284.624C817.261 285.104 816.813 285.488 816.216 285.776C815.629 286.053 814.904 286.192 814.04 286.192ZM820.829 289.392C820.594 289.392 820.333 289.349 820.045 289.264C819.768 289.179 819.48 289.067 819.181 288.928L819.741 287.68C819.976 287.787 820.178 287.867 820.349 287.92C820.53 287.973 820.674 288 820.781 288C821.048 288 821.272 287.925 821.453 287.776C821.645 287.627 821.8 287.419 821.917 287.152L822.845 284.96L825.693 278H827.325L823.533 286.992C823.33 287.483 823.117 287.909 822.893 288.272C822.669 288.635 822.392 288.912 822.061 289.104C821.741 289.296 821.33 289.392 820.829 289.392ZM822.429 286L818.925 278H820.541L823.437 284.944L823.901 286H822.429ZM831.358 286.192C830.792 286.192 830.286 286.107 829.838 285.936C829.4 285.765 829.027 285.536 828.718 285.248C828.419 284.96 828.195 284.635 828.046 284.272L829.358 283.696C829.528 284.027 829.784 284.299 830.126 284.512C830.467 284.725 830.846 284.832 831.262 284.832C831.72 284.832 832.099 284.747 832.398 284.576C832.696 284.405 832.846 284.165 832.846 283.856C832.846 283.557 832.734 283.323 832.51 283.152C832.286 282.981 831.96 282.843 831.534 282.736L830.782 282.544C830.035 282.341 829.454 282.037 829.038 281.632C828.632 281.227 828.43 280.768 828.43 280.256C828.43 279.477 828.68 278.875 829.182 278.448C829.683 278.021 830.424 277.808 831.406 277.808C831.886 277.808 832.323 277.877 832.718 278.016C833.123 278.155 833.464 278.352 833.742 278.608C834.03 278.864 834.232 279.168 834.35 279.52L833.07 280.096C832.942 279.776 832.723 279.541 832.414 279.392C832.104 279.232 831.742 279.152 831.326 279.152C830.899 279.152 830.563 279.248 830.318 279.44C830.072 279.621 829.95 279.877 829.95 280.208C829.95 280.389 830.051 280.565 830.254 280.736C830.467 280.896 830.776 281.029 831.182 281.136L832.046 281.344C832.568 281.472 833 281.669 833.342 281.936C833.683 282.192 833.939 282.485 834.11 282.816C834.28 283.136 834.366 283.472 834.366 283.824C834.366 284.304 834.232 284.725 833.966 285.088C833.71 285.44 833.352 285.712 832.894 285.904C832.446 286.096 831.934 286.192 831.358 286.192ZM839.035 286.192C838.235 286.192 837.616 285.989 837.179 285.584C836.741 285.168 836.523 284.576 836.523 283.808V275.504H838.043V283.584C838.043 283.979 838.139 284.283 838.331 284.496C838.533 284.699 838.821 284.8 839.195 284.8C839.301 284.8 839.419 284.779 839.547 284.736C839.675 284.693 839.829 284.608 840.011 284.48L840.587 285.664C840.309 285.845 840.043 285.979 839.787 286.064C839.541 286.149 839.291 286.192 839.035 286.192ZM835.163 279.312V278H840.315V279.312H835.163ZM845.561 286.192C844.782 286.192 844.094 286.016 843.497 285.664C842.899 285.301 842.43 284.805 842.089 284.176C841.747 283.547 841.577 282.821 841.577 282C841.577 281.179 841.747 280.453 842.089 279.824C842.43 279.195 842.899 278.704 843.497 278.352C844.105 277.989 844.798 277.808 845.577 277.808C846.313 277.808 846.958 277.995 847.513 278.368C848.067 278.731 848.499 279.253 848.809 279.936C849.129 280.608 849.289 281.403 849.289 282.32H842.825L843.113 282.08C843.113 282.645 843.225 283.136 843.449 283.552C843.673 283.968 843.977 284.288 844.361 284.512C844.745 284.725 845.182 284.832 845.673 284.832C846.206 284.832 846.649 284.709 847.001 284.464C847.363 284.208 847.646 283.888 847.849 283.504L849.161 284.112C848.947 284.528 848.67 284.896 848.329 285.216C847.987 285.525 847.582 285.765 847.113 285.936C846.654 286.107 846.137 286.192 845.561 286.192ZM843.209 281.36L842.905 281.12H847.961L847.673 281.36C847.673 280.891 847.577 280.491 847.385 280.16C847.193 279.819 846.937 279.563 846.617 279.392C846.297 279.211 845.939 279.12 845.545 279.12C845.161 279.12 844.787 279.211 844.425 279.392C844.073 279.563 843.779 279.813 843.545 280.144C843.321 280.475 843.209 280.88 843.209 281.36ZM850.79 286V278H852.214L852.278 279.104C852.534 278.677 852.854 278.357 853.238 278.144C853.622 277.92 854.065 277.808 854.566 277.808C855.206 277.808 855.75 277.957 856.198 278.256C856.646 278.544 856.972 278.987 857.174 279.584C857.409 279.008 857.74 278.571 858.166 278.272C858.593 277.963 859.1 277.808 859.686 277.808C860.593 277.808 861.302 278.107 861.814 278.704C862.326 279.291 862.577 280.197 862.566 281.424V286H861.062V281.904C861.062 281.179 860.982 280.629 860.822 280.256C860.673 279.872 860.47 279.605 860.214 279.456C859.958 279.307 859.66 279.227 859.318 279.216C858.721 279.216 858.257 279.445 857.926 279.904C857.606 280.363 857.446 281.008 857.446 281.84V286H855.926V281.904C855.926 281.179 855.852 280.629 855.702 280.256C855.553 279.872 855.345 279.605 855.078 279.456C854.822 279.307 854.524 279.227 854.182 279.216C853.585 279.216 853.121 279.445 852.79 279.904C852.47 280.363 852.31 281.008 852.31 281.84V286H850.79ZM868.783 286V274.8H870.351V286H868.783ZM872.837 286V278H874.261L874.357 279.472V286H872.837ZM878.373 286V281.904H879.893V286H878.373ZM878.373 281.904C878.373 281.179 878.288 280.629 878.117 280.256C877.957 279.872 877.728 279.605 877.429 279.456C877.141 279.307 876.805 279.227 876.421 279.216C875.771 279.216 875.264 279.445 874.901 279.904C874.539 280.363 874.357 281.008 874.357 281.84H873.701C873.701 280.997 873.824 280.277 874.069 279.68C874.325 279.072 874.683 278.608 875.141 278.288C875.611 277.968 876.165 277.808 876.805 277.808C877.435 277.808 877.979 277.936 878.437 278.192C878.907 278.448 879.264 278.848 879.509 279.392C879.765 279.925 879.893 280.629 879.893 281.504V281.904H878.373ZM884.894 286.192C884.094 286.192 883.475 285.989 883.038 285.584C882.601 285.168 882.382 284.576 882.382 283.808V275.504H883.902V283.584C883.902 283.979 883.998 284.283 884.19 284.496C884.393 284.699 884.681 284.8 885.054 284.8C885.161 284.8 885.278 284.779 885.406 284.736C885.534 284.693 885.689 284.608 885.87 284.48L886.446 285.664C886.169 285.845 885.902 285.979 885.646 286.064C885.401 286.149 885.15 286.192 884.894 286.192ZM881.022 279.312V278H886.174V279.312H881.022ZM891.42 286.192C890.641 286.192 889.953 286.016 889.356 285.664C888.759 285.301 888.289 284.805 887.948 284.176C887.607 283.547 887.436 282.821 887.436 282C887.436 281.179 887.607 280.453 887.948 279.824C888.289 279.195 888.759 278.704 889.356 278.352C889.964 277.989 890.657 277.808 891.436 277.808C892.172 277.808 892.817 277.995 893.372 278.368C893.927 278.731 894.359 279.253 894.668 279.936C894.988 280.608 895.148 281.403 895.148 282.32H888.684L888.972 282.08C888.972 282.645 889.084 283.136 889.308 283.552C889.532 283.968 889.836 284.288 890.22 284.512C890.604 284.725 891.041 284.832 891.532 284.832C892.065 284.832 892.508 284.709 892.86 284.464C893.223 284.208 893.505 283.888 893.708 283.504L895.02 284.112C894.807 284.528 894.529 284.896 894.188 285.216C893.847 285.525 893.441 285.765 892.972 285.936C892.513 286.107 891.996 286.192 891.42 286.192ZM889.068 281.36L888.764 281.12H893.82L893.532 281.36C893.532 280.891 893.436 280.491 893.244 280.16C893.052 279.819 892.796 279.563 892.476 279.392C892.156 279.211 891.799 279.12 891.404 279.12C891.02 279.12 890.647 279.211 890.284 279.392C889.932 279.563 889.639 279.813 889.404 280.144C889.18 280.475 889.068 280.88 889.068 281.36ZM899.962 289.408C899.428 289.408 898.943 289.355 898.506 289.248C898.068 289.152 897.7 289.04 897.402 288.912C897.103 288.784 896.879 288.672 896.73 288.576L897.306 287.344C897.444 287.429 897.642 287.525 897.898 287.632C898.154 287.749 898.452 287.845 898.794 287.92C899.135 288.005 899.514 288.048 899.93 288.048C900.42 288.048 900.858 287.947 901.242 287.744C901.626 287.552 901.924 287.248 902.138 286.832C902.362 286.416 902.474 285.883 902.474 285.232V278H903.994V285.2C903.994 286.117 903.818 286.885 903.466 287.504C903.124 288.133 902.65 288.608 902.042 288.928C901.444 289.248 900.751 289.408 899.962 289.408ZM899.818 285.888C899.092 285.888 898.458 285.723 897.914 285.392C897.38 285.051 896.959 284.581 896.65 283.984C896.351 283.376 896.202 282.677 896.202 281.888C896.202 281.067 896.351 280.352 896.65 279.744C896.959 279.136 897.38 278.661 897.914 278.32C898.458 277.979 899.092 277.808 899.818 277.808C900.479 277.808 901.055 277.979 901.546 278.32C902.047 278.661 902.431 279.141 902.698 279.76C902.975 280.368 903.114 281.083 903.114 281.904C903.114 282.693 902.975 283.392 902.698 284C902.431 284.597 902.047 285.061 901.546 285.392C901.055 285.723 900.479 285.888 899.818 285.888ZM900.202 284.608C900.65 284.608 901.039 284.491 901.37 284.256C901.7 284.011 901.962 283.685 902.154 283.28C902.346 282.864 902.442 282.389 902.442 281.856C902.442 281.323 902.346 280.853 902.154 280.448C901.962 280.043 901.695 279.728 901.354 279.504C901.023 279.269 900.634 279.152 900.186 279.152C899.716 279.152 899.3 279.269 898.938 279.504C898.586 279.728 898.308 280.043 898.106 280.448C897.903 280.853 897.802 281.323 897.802 281.856C897.802 282.389 897.903 282.864 898.106 283.28C898.319 283.685 898.602 284.011 898.954 284.256C899.316 284.491 899.732 284.608 900.202 284.608ZM907.031 281.696C907.031 280.832 907.196 280.128 907.527 279.584C907.858 279.04 908.284 278.635 908.807 278.368C909.33 278.101 909.879 277.968 910.455 277.968V279.408C909.975 279.408 909.516 279.483 909.079 279.632C908.652 279.771 908.3 280.005 908.023 280.336C907.756 280.656 907.623 281.093 907.623 281.648L907.031 281.696ZM906.103 286V278H907.623V286H906.103ZM916.593 286L916.529 284.608V281.824C916.529 281.237 916.46 280.747 916.321 280.352C916.193 279.957 915.99 279.659 915.713 279.456C915.446 279.253 915.089 279.152 914.641 279.152C914.225 279.152 913.862 279.237 913.553 279.408C913.254 279.579 913.004 279.845 912.801 280.208L911.457 279.696C911.649 279.333 911.889 279.013 912.177 278.736C912.465 278.448 912.812 278.224 913.217 278.064C913.622 277.893 914.097 277.808 914.641 277.808C915.398 277.808 916.028 277.957 916.529 278.256C917.03 278.555 917.404 278.987 917.649 279.552C917.905 280.117 918.028 280.816 918.017 281.648L918.001 286H916.593ZM914.241 286.192C913.292 286.192 912.55 285.979 912.017 285.552C911.494 285.115 911.233 284.512 911.233 283.744C911.233 282.923 911.505 282.299 912.049 281.872C912.604 281.435 913.372 281.216 914.353 281.216H916.577V282.416H914.769C914.033 282.416 913.516 282.533 913.217 282.768C912.918 282.992 912.769 283.307 912.769 283.712C912.769 284.085 912.908 284.379 913.185 284.592C913.473 284.795 913.868 284.896 914.369 284.896C914.806 284.896 915.185 284.805 915.505 284.624C915.825 284.432 916.076 284.165 916.257 283.824C916.438 283.483 916.529 283.093 916.529 282.656H917.057C917.057 283.744 916.822 284.608 916.353 285.248C915.894 285.877 915.19 286.192 914.241 286.192ZM923.019 286.192C922.219 286.192 921.6 285.989 921.163 285.584C920.726 285.168 920.507 284.576 920.507 283.808V275.504H922.027V283.584C922.027 283.979 922.123 284.283 922.315 284.496C922.518 284.699 922.806 284.8 923.179 284.8C923.286 284.8 923.403 284.779 923.531 284.736C923.659 284.693 923.814 284.608 923.995 284.48L924.571 285.664C924.294 285.845 924.027 285.979 923.771 286.064C923.526 286.149 923.275 286.192 923.019 286.192ZM919.147 279.312V278H924.299V279.312H919.147ZM926.168 286V278H927.688V286H926.168ZM926.936 276.304C926.69 276.304 926.477 276.213 926.296 276.032C926.114 275.84 926.024 275.621 926.024 275.376C926.024 275.12 926.114 274.907 926.296 274.736C926.477 274.555 926.69 274.464 926.936 274.464C927.192 274.464 927.405 274.555 927.576 274.736C927.757 274.907 927.848 275.12 927.848 275.376C927.848 275.621 927.757 275.84 927.576 276.032C927.405 276.213 927.192 276.304 926.936 276.304ZM933.531 286.192C932.731 286.192 932.027 286.016 931.419 285.664C930.811 285.301 930.331 284.805 929.979 284.176C929.638 283.547 929.467 282.821 929.467 282C929.467 281.179 929.638 280.453 929.979 279.824C930.321 279.195 930.795 278.704 931.403 278.352C932.011 277.989 932.71 277.808 933.499 277.808C934.289 277.808 934.987 277.989 935.595 278.352C936.203 278.704 936.678 279.195 937.019 279.824C937.361 280.453 937.531 281.179 937.531 282C937.531 282.821 937.361 283.547 937.019 284.176C936.678 284.805 936.203 285.301 935.595 285.664C934.998 286.016 934.31 286.192 933.531 286.192ZM933.531 284.8C934.011 284.8 934.438 284.683 934.811 284.448C935.185 284.203 935.473 283.872 935.675 283.456C935.889 283.04 935.995 282.555 935.995 282C935.995 281.445 935.889 280.96 935.675 280.544C935.473 280.128 935.179 279.803 934.795 279.568C934.411 279.323 933.979 279.2 933.499 279.2C933.009 279.2 932.577 279.323 932.203 279.568C931.83 279.803 931.537 280.128 931.323 280.544C931.11 280.96 931.003 281.445 931.003 282C931.003 282.555 931.11 283.04 931.323 283.456C931.537 283.872 931.835 284.203 932.219 284.448C932.603 284.683 933.041 284.8 933.531 284.8ZM939.197 286V278H940.621L940.717 279.472V286H939.197ZM944.733 286V281.904H946.253V286H944.733ZM944.733 281.904C944.733 281.179 944.647 280.629 944.477 280.256C944.317 279.872 944.087 279.605 943.789 279.456C943.501 279.307 943.165 279.227 942.781 279.216C942.13 279.216 941.623 279.445 941.261 279.904C940.898 280.363 940.717 281.008 940.717 281.84H940.061C940.061 280.997 940.183 280.277 940.429 279.68C940.685 279.072 941.042 278.608 941.501 278.288C941.97 277.968 942.525 277.808 943.165 277.808C943.794 277.808 944.338 277.936 944.797 278.192C945.266 278.448 945.623 278.848 945.869 279.392C946.125 279.925 946.253 280.629 946.253 281.504V281.904H944.733Z" fill="#EDEDED"/>
<defs>
<radialGradient id="paint0_radial_1061_2269" cx="0" cy="0" r="1" gradientUnits="userSpaceOnUse" gradientTransform="translate(449.404 171.553) rotate(160.961) scale(310.973 145.209)">
<stop offset="0.0229315" stop-color="#7000FF"/>
<stop offset="0.779747" stop-color="#0075FF"/>
<stop offset="1" stop-color="#7300FF"/>
</radialGradient>
<radialGradient id="paint1_radial_1061_2269" cx="0" cy="0" r="1" gradientUnits="userSpaceOnUse" gradientTransform="translate(526.686 161.174) rotate(15.6699) scale(338.736 150.969)">
<stop stop-color="#7000FF"/>
<stop offset="0.659109" stop-color="#0075FF"/>
<stop offset="1" stop-color="#7300FF"/>
</radialGradient>
<linearGradient id="paint2_linear_1061_2269" x1="484.999" y1="167.473" x2="484.999" y2="222.446" gradientUnits="userSpaceOnUse">
<stop stop-opacity="0"/>
<stop offset="1"/>
</linearGradient>
<linearGradient id="paint3_linear_1061_2269" x1="-nan" y1="-nan" x2="-nan" y2="-nan" gradientUnits="userSpaceOnUse">
<stop offset="0.187774" stop-color="#6F12E5"/>
<stop offset="0.479735" stop-color="#096BDE"/>
<stop offset="0.658117" stop-color="#200541" stop-opacity="0"/>
</linearGradient>
<linearGradient id="paint4_linear_1061_2269" x1="485" y1="171" x2="485" y2="128.606" gradientUnits="userSpaceOnUse">
<stop stop-opacity="0"/>
<stop offset="1" stop-color="#030004"/>
</linearGradient>
<linearGradient id="paint5_linear_1061_2269" x1="455.955" y1="290.061" x2="445.926" y2="290.061" gradientUnits="userSpaceOnUse">
<stop stop-color="#7F00FF"/>
<stop offset="1" stop-color="#E100FF"/>
</linearGradient>
<linearGradient id="paint6_linear_1061_2269" x1="460.998" y1="284.025" x2="445.926" y2="284.025" gradientUnits="userSpaceOnUse">
<stop stop-color="#7F00FF"/>
<stop offset="1" stop-color="#E100FF"/>
</linearGradient>
<linearGradient id="paint7_linear_1061_2269" x1="455.974" y1="269.965" x2="445.926" y2="269.965" gradientUnits="userSpaceOnUse">
<stop stop-color="#7F00FF"/>
<stop offset="1" stop-color="#E100FF"/>
</linearGradient>
<linearGradient id="paint8_linear_1061_2269" x1="460.998" y1="276" x2="445.926" y2="276" gradientUnits="userSpaceOnUse">
<stop stop-color="#7F00FF"/>
<stop offset="1" stop-color="#E100FF"/>
</linearGradient>
<linearGradient id="paint9_linear_1061_2269" x1="444.049" y1="280" x2="429" y2="280" gradientUnits="userSpaceOnUse">
<stop stop-color="#7F00FF"/>
<stop offset="1" stop-color="#E100FF"/>
</linearGradient>
<linearGradient id="paint10_linear_1061_2269" x1="505.001" y1="40.0002" x2="465" y2="40.0002" gradientUnits="userSpaceOnUse">
<stop stop-color="#7F00FF"/>
<stop offset="1" stop-color="#E100FF"/>
</linearGradient>
<linearGradient id="paint11_linear_1061_2269" x1="50.6674" y1="291.632" x2="29.3359" y2="291.632" gradientUnits="userSpaceOnUse">
<stop stop-color="#7F00FF"/>
<stop offset="1" stop-color="#E100FF"/>
</linearGradient>
<linearGradient id="paint12_linear_1061_2269" x1="42.6654" y1="283.2" x2="37.332" y2="283.2" gradientUnits="userSpaceOnUse">
<stop stop-color="#7F00FF"/>
<stop offset="1" stop-color="#E100FF"/>
</linearGradient>
<linearGradient id="paint13_linear_1061_2269" x1="43.7323" y1="281.067" x2="36.2656" y2="281.067" gradientUnits="userSpaceOnUse">
<stop stop-color="#7F00FF"/>
<stop offset="1" stop-color="#E100FF"/>
</linearGradient>
<linearGradient id="paint14_linear_1061_2269" x1="50.6677" y1="287.866" x2="29.3359" y2="287.866" gradientUnits="userSpaceOnUse">
<stop stop-color="#7F00FF"/>
<stop offset="1" stop-color="#E100FF"/>
</linearGradient>
<linearGradient id="paint15_linear_1061_2269" x1="41.0669" y1="271.467" x2="38.9336" y2="271.467" gradientUnits="userSpaceOnUse">
<stop stop-color="#7F00FF"/>
<stop offset="1" stop-color="#E100FF"/>
</linearGradient>
<linearGradient id="paint16_linear_1061_2269" x1="50.6627" y1="283.006" x2="29.3398" y2="283.006" gradientUnits="userSpaceOnUse">
<stop stop-color="#7F00FF"/>
<stop offset="1" stop-color="#E100FF"/>
</linearGradient>
<linearGradient id="paint17_linear_1061_2269" x1="46.4016" y1="272.266" x2="33.6016" y2="272.266" gradientUnits="userSpaceOnUse">
<stop stop-color="#7F00FF"/>
<stop offset="1" stop-color="#E100FF"/>
</linearGradient>
<linearGradient id="paint18_linear_1061_2269" x1="43.7348" y1="271.466" x2="36.2617" y2="271.466" gradientUnits="userSpaceOnUse">
<stop stop-color="#7F00FF"/>
<stop offset="1" stop-color="#E100FF"/>
</linearGradient>
<linearGradient id="paint19_linear_1061_2269" x1="780.312" y1="291.453" x2="771.25" y2="291.453" gradientUnits="userSpaceOnUse">
<stop stop-color="#7F00FF"/>
<stop offset="1" stop-color="#E100FF"/>
</linearGradient>
<linearGradient id="paint20_linear_1061_2269" x1="787.5" y1="292.812" x2="782.5" y2="292.812" gradientUnits="userSpaceOnUse">
<stop stop-color="#7F00FF"/>
<stop offset="1" stop-color="#E100FF"/>
</linearGradient>
<linearGradient id="paint21_linear_1061_2269" x1="798.75" y1="291.453" x2="789.688" y2="291.453" gradientUnits="userSpaceOnUse">
<stop stop-color="#7F00FF"/>
<stop offset="1" stop-color="#E100FF"/>
</linearGradient>
<linearGradient id="paint22_linear_1061_2269" x1="796.875" y1="275.875" x2="773.125" y2="275.875" gradientUnits="userSpaceOnUse">
<stop stop-color="#7F00FF"/>
<stop offset="1" stop-color="#E100FF"/>
</linearGradient>
<clipPath id="clip0_1061_2269">
<rect width="32" height="32" fill="white" transform="translate(429 264)"/>
</clipPath>
<clipPath id="clip1_1061_2269">
<rect width="40" height="40" fill="white" transform="translate(465 20)"/>
</clipPath>
</defs>
</svg>
