<svg width="14" height="13" viewBox="0 0 14 13" fill="none" xmlns="http://www.w3.org/2000/svg">
<path d="M7 12.5C10.3137 12.5 13 9.81371 13 6.5C13 3.18629 10.3137 0.5 7 0.5M7 12.5C3.68629 12.5 1 9.81371 1 6.5C1 3.18629 3.68629 0.5 7 0.5M7 12.5C5.55025 12.5 4.375 9.81371 4.375 6.5C4.375 3.18629 5.55025 0.5 7 0.5M7 12.5C8.44975 12.5 9.625 9.81371 9.625 6.5C9.625 3.18629 8.44975 0.5 7 0.5M2.125 9.41628C3.22422 8.78683 5.05049 8.375 7.11757 8.375C9.27496 8.375 11.17 8.8236 12.25 9.5M2.125 3.58372C3.22422 4.21317 5.05049 4.625 7.11757 4.625C9.27496 4.625 11.17 4.1764 12.25 3.5" stroke="white"/>
</svg>
