<svg width="24" height="24" viewBox="0 0 24 24" fill="none" xmlns="http://www.w3.org/2000/svg">
<g clip-path="url(#clip0_2986_1712)">
<path d="M23.6 12C23.6 18.4065 18.4065 23.6 12 23.6C5.5935 23.6 0.4 18.4065 0.4 12C0.4 5.5935 5.5935 0.4 12 0.4C18.4065 0.4 23.6 5.5935 23.6 12Z" fill="black" stroke="#323232" stroke-width="0.8"/>
<path d="M15.7181 12.4856H13.6418V20H10.4961V12.4856H9V9.84468H10.4961V8.13573C10.4961 6.91365 11.0837 5 13.6698 5L16 5.00963V7.57305H14.3093C14.032 7.57305 13.6421 7.70993 13.6421 8.2929V9.84714H15.9929L15.7181 12.4856Z" fill="#EDEDED"/>
</g>
<defs>
<clipPath id="clip0_2986_1712">
<rect width="24" height="24" fill="white"/>
</clipPath>
</defs>
</svg>
