<svg width="24" height="24" viewBox="0 0 24 24" fill="none" xmlns="http://www.w3.org/2000/svg">
<g clip-path="url(#clip0_2986_1716)">
<path d="M0.4 12C0.4 5.59373 5.59373 0.4 12 0.4C18.4063 0.4 23.6 5.59373 23.6 12C23.6 18.4063 18.4063 23.6 12 23.6C5.59373 23.6 0.4 18.4063 0.4 12Z" fill="black" stroke="#323232" stroke-width="0.8"/>
<path d="M13.1416 11.0812L17.6089 6H16.5503L12.6714 10.4119L9.57328 6H6L10.6849 12.6716L6 18H7.05866L11.1549 13.3409L14.4267 18H18L13.1414 11.0812H13.1416ZM7.4401 6.77982H9.06614L16.5508 17.2557H14.9247L7.4401 6.77982Z" fill="#EDEDED"/>
</g>
<defs>
<clipPath id="clip0_2986_1716">
<rect width="24" height="24" fill="white"/>
</clipPath>
</defs>
</svg>
