<svg width="24" height="24" viewBox="0 0 24 24" fill="none" xmlns="http://www.w3.org/2000/svg">
<path d="M23.6 12C23.6 18.4065 18.4065 23.6 12 23.6C5.5935 23.6 0.4 18.4065 0.4 12C0.4 5.5935 5.5935 0.4 12 0.4C18.4065 0.4 23.6 5.5935 23.6 12Z" fill="black" stroke="#323232" stroke-width="0.8"/>
<path d="M17.5525 12.7677V17.0394H15.0759V13.054C15.0759 12.0533 14.7183 11.3699 13.8216 11.3699C13.1373 11.3699 12.7308 11.83 12.5512 12.2755C12.486 12.4347 12.4692 12.6558 12.4692 12.8791V17.0392H9.99243C9.99243 17.0392 10.0257 10.2892 9.99243 9.59053H12.4694V10.6461C12.4644 10.6544 12.4574 10.6625 12.453 10.6705H12.4694V10.6461C12.7985 10.1396 13.3855 9.41562 14.7015 9.41562C16.3309 9.41562 17.5525 10.4802 17.5525 12.7677ZM7.40149 6C6.55428 6 6 6.55613 6 7.28679C6 8.00194 6.53821 8.57413 7.36898 8.57413H7.38505C8.24888 8.57413 8.78598 8.00194 8.78598 7.28679C8.76954 6.55613 8.24888 6 7.40149 6ZM6.1472 17.0394H8.62308V9.59053H6.1472V17.0394Z" fill="#EDEDED"/>
</svg>
