<svg width="24" height="24" viewBox="0 0 24 24" fill="none" xmlns="http://www.w3.org/2000/svg">
<path d="M12 0.4C18.4065 0.4 23.6 5.5935 23.6 12C23.6 18.4065 18.4065 23.6 12 23.6C5.5935 23.6 0.4 18.4065 0.4 12C0.4 5.5935 5.5935 0.4 12 0.4Z" fill="black" stroke="#323232" stroke-width="0.8"/>
<path d="M14.6991 6H9.29966C8.42454 6 7.58525 6.34764 6.96645 6.96645C6.34764 7.58525 6 8.42454 6 9.29966V14.6991C6 15.5742 6.34764 16.4135 6.96645 17.0323C7.58525 17.6511 8.42454 17.9988 9.29966 17.9988H14.6991C15.5742 17.9988 16.4135 17.6511 17.0323 17.0323C17.6511 16.4135 17.9988 15.5742 17.9988 14.6991V9.29966C17.9988 8.42454 17.6511 7.58525 17.0323 6.96645C16.4135 6.34764 15.5742 6 14.6991 6ZM16.9489 14.2252C16.9489 14.9475 16.6619 15.6403 16.1511 16.1511C15.6403 16.6619 14.9475 16.9489 14.2252 16.9489H9.77361C9.05124 16.9489 8.35845 16.6619 7.84765 16.1511C7.33685 15.6403 7.04989 14.9475 7.04989 14.2252V9.77361C7.04989 9.05124 7.33685 8.35845 7.84765 7.84765C8.35845 7.33685 9.05124 7.04989 9.77361 7.04989H14.2252C14.9475 7.04989 15.6403 7.33685 16.1511 7.84765C16.6619 8.35845 16.9489 9.05124 16.9489 9.77361V14.2252Z" fill="#EDEDED"/>
<path d="M14.1864 9.83284L14.158 9.80434L14.134 9.78035C13.5669 9.21522 12.7988 8.89806 11.9982 8.89844C11.5939 8.90119 11.1941 8.98357 10.8216 9.14087C10.4492 9.29818 10.1114 9.52733 9.82752 9.81523C9.54366 10.1031 9.31931 10.4441 9.16728 10.8188C9.01525 11.1934 8.93852 11.5943 8.94149 11.9986C8.94088 12.8191 9.2643 13.6067 9.8414 14.1899C10.1241 14.476 10.4609 14.7029 10.8322 14.8574C11.2036 15.012 11.602 15.0909 12.0042 15.0898C12.6075 15.0771 13.194 14.8892 13.6924 14.5489C14.1907 14.2086 14.5792 13.7307 14.8106 13.1734C15.0419 12.616 15.1061 12.0035 14.9953 11.4103C14.8845 10.8171 14.6034 10.269 14.1864 9.83284ZM11.9982 14.0324C11.5948 14.0381 11.1988 13.9236 10.8606 13.7036C10.5224 13.4836 10.2573 13.168 10.099 12.7969C9.94069 12.4258 9.89633 12.016 9.97155 11.6196C10.0468 11.2232 10.2382 10.8582 10.5215 10.5709C10.8047 10.2836 11.167 10.0871 11.5623 10.0062C11.9576 9.92543 12.368 9.96401 12.7413 10.1171C13.1145 10.2701 13.4339 10.5308 13.6586 10.8658C13.8834 11.2008 14.0034 11.5952 14.0035 11.9986C14.0054 12.2639 13.9551 12.5269 13.8554 12.7727C13.7557 13.0185 13.6085 13.2422 13.4223 13.4311C13.236 13.6199 13.0144 13.7703 12.7701 13.8734C12.5257 13.9766 12.2634 14.0306 11.9982 14.0324Z" fill="#EDEDED"/>
<path d="M15.961 8.75836C15.9618 8.85461 15.9436 8.95006 15.9074 9.03926C15.8713 9.12846 15.8179 9.20966 15.7503 9.2782C15.6828 9.34675 15.6023 9.40129 15.5137 9.43871C15.425 9.47613 15.3298 9.4957 15.2336 9.49629C15.1381 9.49624 15.0436 9.47726 14.9556 9.44045C14.8675 9.40363 14.7877 9.34971 14.7206 9.28181C14.619 9.17871 14.5499 9.04806 14.5218 8.90606C14.4938 8.76405 14.508 8.61694 14.5628 8.48295C14.6176 8.34896 14.7105 8.234 14.83 8.15232C14.9495 8.07063 15.0903 8.02582 15.2351 8.02344C15.4044 8.02341 15.5685 8.08286 15.6985 8.19142L15.7135 8.20642C15.7377 8.22611 15.7598 8.24822 15.7795 8.27241L15.796 8.29041C15.9034 8.42267 15.9616 8.58801 15.961 8.75836Z" fill="#EDEDED"/>
</svg>
